<svg viewBox="0 0 25 40" xmlns="http://www.w3.org/2000/svg"><path fill-rule="evenodd" clip-rule="evenodd" d="M10.132.068c0 .037-.19.064-.443.064s-.443.028-.443.064c0 .036-.055.064-.122.064-.066 0-.135.037-.153.08-.024.061-.05.057-.105-.015C8.81.252 8.785.248 8.76.309c-.018.044-.115.08-.217.08-.143 0-.185.029-.185.128 0 .07-.028.128-.063.128S8.233.587 8.233.517 8.204.389 8.169.389a.064.064 0 00-.063.064c0 .035-.143.064-.317.064-.174 0-.316.029-.316.064s-.086.064-.19.064c-.105 0-.19.029-.19.064s-.083.064-.185.064-.201.036-.222.08c-.03.064-.044.064-.074 0-.043-.095-.28-.108-.28-.016 0 .036-.085.064-.19.064-.147 0-.19.029-.19.129 0 .106-.041.128-.253.128-.139 0-.253.029-.253.064s-.057.064-.126.064c-.07 0-.127.029-.127.064s-.046.064-.101.064c-.056 0-.182.087-.28.192-.097.106-.222.193-.278.193-.056 0-.101.029-.101.064s-.057.064-.127.064-.126.029-.126.064-.057.064-.127.064-.127.029-.127.064-.044.064-.098.064c-.153 0-.408.298-.408.478 0 .103-.036.163-.097.163-.125 0-.79.673-.79.8 0 .054-.028.098-.063.098a.064.064 0 01-.064-.064.064.064 0 00-.063-.065c-.035 0-.063.052-.063.114 0 .063-.057.156-.127.207-.07.05-.127.144-.127.206 0 .072-.047.114-.126.114-.085 0-.127.043-.127.129 0 .07-.028.128-.063.128s-.063.086-.063.192c0 .106-.029.192-.064.192s-.063.087-.063.193c0 .105-.029.192-.063.192-.035 0-.064.058-.064.128s-.028.128-.063.128-.063.075-.063.167c0 .102-.074.236-.19.346-.143.135-.19.237-.19.41 0 .127-.029.231-.064.231s-.063.087-.063.192c0 .106-.029.193-.063.193-.035 0-.064.057-.064.128 0 .07-.028.128-.063.128s-.063.115-.063.256c0 .141-.029.257-.064.257S.38 7.88.38 7.952c0 .07.028.128.063.128.141 0 .057.34-.126.513-.114.107-.19.244-.19.34 0 .09-.036.179-.08.2-.063.03-.063.044 0 .074.044.02.08.09.08.155s-.036.134-.08.155c-.063.03-.063.045 0 .075.044.02.08.092.08.16s.028.123.063.123c.091 0 .078.239-.016.283-.063.03-.063.045 0 .075.094.044.108.411.016.411-.035 0-.063.058-.063.128s.028.128.063.128.063.116.063.257c0 .14.029.256.064.256.037 0 .063.214.063.513 0 .3.026.513.063.513.093 0 .078.495-.016.54-.063.03-.063.044 0 .074.044.02.08.15.08.288 0 .139.028.251.063.251s.063.058.063.129c0 .07.029.128.064.128.034 0 .063.057.063.128 0 .07.028.128.063.128s.064.087.064.192c0 .106.028.193.063.193s.063.086.063.192c0 .106.029.192.064.192.034 0 .063.11.063.243 0 .168.038.27.127.334.07.051.126.144.126.207 0 .062.045.114.1.114.054 0 .145.046.2.102.086.086.087.111.011.165-.068.048-.07.07-.01.095.044.019.08.143.08.284 0 .138.028.251.063.251.034 0 .063.051.063.114s.057.156.126.206c.07.051.127.138.127.193 0 .055.057.141.127.192a.352.352 0 01.126.27c0 .099.029.179.064.179s.063.057.063.128c0 .085.042.128.127.128.098 0 .126.043.126.192 0 .106.029.193.064.193s.063.057.063.128c0 .07.029.128.063.128.035 0 .064.051.064.114s.057.156.126.207a.352.352 0 01.127.27c0 .098.029.178.063.178.035 0 .064.058.064.128 0 .071.028.129.063.129s.063.057.063.128c0 .07.029.128.064.128.034 0 .063.087.063.192 0 .106.028.193.063.193s.064.057.064.128c0 .07.028.128.063.128s.063.058.063.128.029.128.064.128c.034 0 .063.052.063.114 0 .063.057.156.127.207.07.05.126.144.126.206 0 .063.029.114.064.114.034 0 .063.058.063.129 0 .07.028.128.063.128s.064.086.064.192c0 .106.028.192.063.192s.063.058.063.128c0 .071.029.129.064.129.034 0 .063.086.063.192 0 .106.028.192.063.192s.064.087.064.193c0 .105.028.192.063.192s.063.086.063.192c0 .106.029.192.064.192.034 0 .063.058.063.129 0 .07-.029.128-.063.128-.035 0-.064.086-.064.192 0 .106.029.192.064.192.034 0 .063.087.063.193 0 .105.028.192.063.192s.064.086.064.192c0 .106.028.192.063.192.036 0 .063.193.063.45 0 .256.027.448.064.448.034 0 .063.144.063.32 0 .177.028.32.063.32s.063.058.063.129c0 .07-.028.128-.063.128s-.063.087-.063.192c0 .106.028.193.063.193s.063.086.063.192c0 .106.029.192.064.192.038 0 .063.278.063.705 0 .428-.025.706-.063.706-.035 0-.064.057-.064.128 0 .07.029.128.064.128.091 0 .078.239-.016.283-.063.03-.063.045 0 .075.05.023.08.175.08.411s.028.388.078.411c.064.03.064.045 0 .075-.125.06-.093.373.048.476.101.073.126.165.126.462 0 .204.029.37.064.37s.063.087.063.193c0 .106.029.192.063.192.035 0 .064.08.064.178 0 .105.052.217.126.271.131.095.176.32.064.32-.035 0-.064.058-.064.129 0 .07.029.128.064.128s.063.057.063.128c0 .07.029.128.063.128.035 0 .064.087.064.192 0 .106.028.193.063.193s.063.057.063.128c0 .074.043.128.1.128.215 0 .376.329.201.411-.063.03-.063.045 0 .075.044.02.08.15.08.289 0 .138.028.25.063.25.034 0 .063.058.063.129 0 .07.029.128.063.128.035 0 .064.058.064.128 0 .1.042.129.19.129.131 0 .19.03.19.102 0 .056.085.183.19.282.104.099.19.226.19.282 0 .067.055.103.16.103.179 0 .473.258.473.413 0 .055.054.1.121.1s.136.035.154.08c.024.06.047.058.095-.012.052-.076.097-.056.252.112.118.128.25.204.353.204h.165v.64c0 .386.025.642.063.642.035 0 .063.086.063.192 0 .132.032.193.1.193.054 0 .237.144.407.32.17.176.353.32.408.32.054 0 .099.03.099.064 0 .036.057.065.126.065.07 0 .127.029.127.064s.114.064.253.064c.14 0 .254.029.254.064s.057.064.126.064c.07 0 .127-.029.127-.064s.085-.064.19-.064c.104 0 .19.029.19.064s.085.064.19.064c.104 0 .19-.029.19-.064s.083-.064.185-.064c.101 0 .199-.036.216-.08.025-.06.05-.057.105.016.055.072.081.076.105.016.018-.044.075-.08.127-.08.052 0 .204-.116.338-.257.134-.14.289-.256.344-.256.057 0 .1-.054.1-.128 0-.07.028-.129.063-.129s.063-.075.063-.168c0-.095.062-.223.14-.292.12-.105.127-.134.048-.189-.07-.05-.073-.073-.014-.098.094-.038.108-.278.016-.278-.036 0-.063-.192-.063-.449 0-.406.012-.448.127-.448.07 0 .126-.03.126-.065s.083-.064.185-.064.2-.036.217-.08c.024-.06.048-.057.097.014.054.08.082.073.186-.048.084-.098.193-.142.352-.142.126 0 .23-.029.23-.064s.05-.064.113-.064c.062 0 .153-.058.204-.128a.345.345 0 01.267-.129c.126 0 .176-.032.176-.114 0-.062.057-.155.126-.206.07-.05.127-.137.127-.192 0-.055.057-.142.127-.193.07-.05.126-.137.126-.192 0-.055.057-.141.127-.192.07-.051.127-.132.127-.181 0-.048.085-.17.19-.268.104-.099.19-.226.19-.282 0-.056.028-.103.063-.103s.063-.057.063-.128c0-.07.029-.128.064-.128s.063-.086.063-.192c0-.15.028-.192.127-.192.084 0 .126-.043.126-.129 0-.085.043-.128.127-.128.105 0 .127-.043.127-.256 0-.141.028-.257.063-.257s.063-.086.063-.192c0-.106.029-.192.064-.192.034 0 .063-.115.063-.256 0-.142-.029-.257-.063-.257-.035 0-.064-.058-.064-.128s.029-.128.064-.128.063-.171.063-.385c0-.213.028-.385.063-.385s.064-.144.064-.32c0-.176-.029-.32-.064-.32s-.063-.058-.063-.129c0-.07.028-.128.063-.128.04 0 .064-.513.064-1.41 0-.897.023-1.41.063-1.41.097 0 .082-1.006-.016-1.052-.063-.03-.063-.045 0-.075.047-.022.08-.162.08-.347 0-.185.031-.325.078-.347.064-.03.064-.045 0-.075-.096-.046-.111-.924-.015-.924.034 0 .063-.058.063-.128s.028-.129.063-.129.063-.17.063-.384.029-.385.064-.385.063-.058.063-.128-.028-.128-.063-.128c-.112 0-.068-.225.063-.32.097-.07.127-.167.127-.4 0-.168.028-.306.063-.306s.064-.115.064-.256c0-.141.028-.256.063-.256s.063-.087.063-.193c0-.105.029-.192.063-.192.035 0 .064-.058.064-.128s.028-.128.063-.128.064-.087.064-.193c0-.105.028-.192.063-.192s.063-.058.063-.128.029-.128.063-.128c.035 0 .064-.08.064-.178 0-.105.052-.217.126-.271a.352.352 0 00.127-.27c0-.099.029-.179.063-.179.035 0 .064-.086.064-.192 0-.106.028-.192.063-.192s.063-.052.063-.114c0-.063.057-.156.127-.207.07-.05.127-.143.127-.206s.028-.114.063-.114.063-.058.063-.128c0-.071.029-.129.064-.129s.063-.057.063-.128c0-.074.042-.128.1-.128.145 0 .28-.16.28-.334 0-.083.057-.192.127-.243.07-.05.126-.144.126-.206 0-.063.029-.114.064-.114s.063-.116.063-.257c0-.14.029-.256.063-.256.035 0 .064-.058.064-.128s.028-.128.063-.128.063-.08.063-.179c0-.104.053-.216.127-.27.07-.051.127-.138.127-.193 0-.054.057-.141.126-.192.07-.05.127-.144.127-.206 0-.071.047-.114.127-.114.105 0 .126-.043.126-.251 0-.139.036-.268.08-.289.063-.03.063-.045 0-.074-.12-.057-.095-.244.047-.348.104-.076.127-.166.127-.513 0-.346.022-.436.126-.512.102-.074.127-.166.127-.463 0-.328.015-.37.127-.37.098 0 .126-.043.126-.193 0-.106.029-.192.064-.192.036 0 .063-.192.063-.449 0-.256.027-.448.063-.448.035 0 .063-.145.063-.32 0-.177-.028-.321-.063-.321-.091 0-.078-.24.016-.284.063-.03.063-.044 0-.074-.094-.045-.107-.283-.016-.283.035 0 .063-.087.063-.193 0-.105-.028-.192-.063-.192s-.063-.166-.063-.37c0-.297-.025-.39-.127-.463-.088-.065-.127-.166-.127-.335 0-.133-.028-.242-.063-.242s-.063-.058-.063-.128.028-.128.063-.128.063-.058.063-.129c0-.085-.042-.128-.126-.128-.099 0-.127-.043-.127-.192 0-.106-.028-.192-.063-.192s-.064-.104-.064-.231c0-.177-.047-.275-.201-.421-.155-.147-.182-.204-.117-.245.07-.044.068-.071-.015-.155-.055-.056-.145-.102-.2-.102-.065 0-.1-.058-.1-.167 0-.102-.073-.235-.19-.346-.132-.125-.19-.24-.19-.38 0-.156-.075-.275-.347-.55-.19-.194-.378-.352-.416-.352-.091 0-.25-.163-.25-.258 0-.041-.085-.156-.19-.255-.104-.098-.19-.225-.19-.282 0-.06-.053-.102-.127-.102-.07 0-.126-.029-.126-.064s-.057-.064-.127-.064-.127-.03-.127-.064c0-.036-.05-.065-.112-.065s-.154-.057-.204-.128c-.05-.07-.13-.128-.179-.128-.048 0-.167-.086-.264-.192-.098-.106-.217-.192-.265-.192-.048 0-.129-.058-.179-.129-.05-.07-.136-.128-.19-.128-.054 0-.14-.058-.19-.128-.05-.07-.142-.128-.204-.128s-.112-.03-.112-.064c0-.036-.057-.064-.127-.064s-.127-.03-.127-.065-.057-.064-.126-.064c-.07 0-.127-.028-.127-.064 0-.035-.057-.064-.127-.064s-.126-.029-.126-.064-.057-.064-.127-.064-.127-.029-.127-.064-.057-.064-.126-.064c-.07 0-.127-.03-.127-.064 0-.036-.08-.064-.176-.064A.344.344 0 0117.162.9c-.064-.089-.164-.128-.33-.128-.133 0-.24-.029-.24-.064s-.136-.064-.303-.064c-.23 0-.324-.03-.394-.128-.076-.107-.164-.128-.52-.128-.244 0-.43-.028-.43-.064 0-.036-.085-.065-.19-.065-.104 0-.19-.028-.19-.064 0-.039-.295-.064-.76-.064-.464 0-.76-.025-.76-.064 0-.035-.056-.064-.126-.064s-.127.029-.127.064c0 .093-.237.079-.275-.016-.024-.06-.049-.056-.1.016-.06.086-.075.086-.131 0-.057-.085-.071-.085-.132 0-.051.073-.076.076-.1.016-.04-.1-1.922-.117-1.922-.016zM9.88 1.094c0 .035.114.064.253.064.14 0 .254-.03.254-.064 0-.036.114-.064.253-.064.14 0 .253.028.253.064 0 .035.17.064.38.064.211 0 .38-.029.38-.064 0-.036.17-.064.38-.064.211 0 .38.028.38.064 0 .093.49.078.533-.016.03-.064.045-.064.074 0 .02.044.149.08.285.08.136 0 .248.029.248.064 0 .038.253.064.633.064s.634.026.634.064c0 .037.19.064.443.064s.443.028.443.064c0 .036.057.064.127.064s.127.03.127.064c0 .036.085.065.19.065.104 0 .19.028.19.064 0 .035.085.064.19.064.104 0 .19.029.19.064s.113.064.253.064.253.029.253.064.05.064.113.064c.062 0 .153.058.204.128.062.087.164.129.316.129.153 0 .255.04.317.128.05.07.136.128.19.128.054 0 .14.058.19.128.05.07.136.128.19.128.054 0 .14.058.19.128.05.071.136.129.19.129.054 0 .14.057.19.128.05.07.136.128.19.128.054 0 .14.058.19.128.05.07.129.128.175.128.116 0 .395.293.395.414 0 .056.055.1.127.1.084 0 .126.042.126.127 0 .073.042.129.098.129.112 0 .409.28.409.385 0 .039.17.24.38.448.209.207.38.41.38.448 0 .106.296.385.409.385.066 0 .097.062.097.192 0 .106.029.193.064.193s.063.057.063.128c0 .07.029.128.063.128.035 0 .064.058.064.128s.028.128.063.128.063.058.063.129c0 .07.029.128.064.128.034 0 .063.086.063.192 0 .106.028.192.063.192s.064.116.064.257c0 .14.028.256.063.256s.063.116.063.257c0 .14.029.256.064.256.091 0 .077.367-.016.411-.064.03-.064.045 0 .075.1.047.115 1.821.016 1.821-.093 0-.078.496.015.54.064.03.064.045 0 .075-.043.02-.079.121-.079.224 0 .103-.028.187-.063.187-.036 0-.063.192-.063.449 0 .256-.028.448-.064.448-.035 0-.063.087-.063.193 0 .105-.029.192-.063.192-.035 0-.064.144-.064.32 0 .177-.028.32-.063.32s-.063.058-.063.129c0 .07-.029.128-.064.128s-.063.087-.063.192c0 .15-.028.193-.127.193-.084 0-.126.043-.126.128 0 .07-.029.128-.064.128-.034 0-.063.087-.063.192 0 .106-.029.193-.063.193-.035 0-.064.051-.064.114s-.057.155-.126.206c-.07.051-.127.144-.127.207 0 .062-.029.114-.063.114-.035 0-.064.08-.064.178a.352.352 0 01-.126.27c-.088.065-.127.166-.127.335 0 .133-.028.242-.063.242s-.064.058-.064.128-.028.129-.063.129-.063.05-.063.114c0 .062-.057.155-.127.206-.07.05-.127.144-.127.207 0 .062-.028.114-.063.114s-.063.057-.063.128c0 .07-.029.128-.064.128-.034 0-.063.051-.063.114s-.057.156-.127.206c-.07.051-.126.144-.126.207s-.029.114-.064.114c-.034 0-.063.058-.063.128s-.028.128-.063.128-.063.052-.063.114c0 .063-.058.156-.127.207-.07.05-.127.143-.127.206s-.028.114-.063.114-.064.087-.064.192c0 .106-.028.193-.063.193s-.063.115-.063.256c0 .141-.029.257-.063.257-.035 0-.064.115-.064.256 0 .141-.028.256-.063.256s-.063.058-.063.129c0 .07-.029.128-.064.128s-.063.086-.063.192c0 .106-.029.192-.063.192-.035 0-.064.058-.064.129 0 .07-.028.128-.063.128s-.063.086-.063.192c0 .106-.029.192-.064.192s-.063.113-.063.251c0 .139-.036.268-.08.289-.063.03-.063.045 0 .075.126.059.095.372-.047.475-.101.074-.126.166-.126.463 0 .204-.029.37-.064.37s-.063.087-.063.193c0 .141-.03.192-.113.192-.062 0-.153.057-.204.128-.05.07-.135.128-.19.128-.054 0-.14.058-.19.128-.069.098-.164.128-.394.128-.166 0-.302.03-.302.065s-.057.064-.127.064-.127.029-.127.064c0 .038-.223.064-.542.064-.423 0-.567-.024-.649-.107-.077-.078-.084-.114-.027-.134.093-.031.107-.4.015-.4-.035 0-.063-.115-.063-.256 0-.142.028-.257.063-.257.039 0 .064-.278.064-.705 0-.427.024-.705.063-.705.035 0 .063-.115.063-.256 0-.141.029-.257.064-.257.034 0 .063-.138.063-.306 0-.233.03-.328.127-.399.07-.05.126-.143.126-.206s.029-.114.063-.114c.035 0 .064-.055.064-.123s.035-.138.079-.155c.06-.025.056-.051-.016-.107-.072-.056-.075-.082-.016-.106.044-.018.08-.082.08-.141 0-.06.056-.15.126-.201a.352.352 0 00.127-.271c0-.098.028-.178.063-.178s.063-.058.063-.128.029-.129.064-.129.063-.115.063-.256c0-.14.029-.256.064-.256.034 0 .063-.058.063-.128 0-.071.028-.129.063-.129s.063-.051.063-.114.057-.155.127-.206c.07-.051.127-.144.127-.207 0-.062.028-.114.063-.114s.063-.057.063-.128c0-.07.029-.128.064-.128s.063-.051.063-.114.057-.156.127-.206c.07-.051.126-.138.126-.193 0-.055.057-.141.127-.192.07-.05.127-.137.127-.192 0-.055.057-.142.126-.193.07-.05.127-.132.127-.18 0-.049.086-.17.19-.268.105-.1.19-.226.19-.282 0-.057.028-.103.063-.103s.064-.058.064-.128.028-.128.063-.128.063-.058.063-.129c0-.07.029-.128.064-.128.034 0 .063-.08.063-.178 0-.104.052-.216.127-.27a.352.352 0 00.126-.27c0-.099.029-.179.064-.179.034 0 .063-.115.063-.256 0-.141.028-.257.063-.257s.063-.138.063-.306c0-.233.03-.329.127-.399s.127-.166.127-.399c0-.168.028-.306.063-.306.099 0 .084-1.52-.016-1.56-.06-.025-.056-.048.014-.098.08-.056.072-.084-.047-.189-.141-.123-.198-.46-.078-.46.035 0 .064-.116.064-.257 0-.14-.029-.256-.064-.256-.034 0-.063-.058-.063-.128 0-.1-.042-.129-.19-.129-.16 0-.19-.024-.19-.16 0-.209-1.133-1.378-1.335-1.378-.074 0-.219-.092-.322-.204-.155-.168-.2-.188-.252-.112-.049.07-.071.073-.096.012-.018-.045-.14-.08-.28-.08-.136 0-.248-.03-.248-.065s-.054-.064-.121-.064-.138-.036-.159-.08c-.03-.064-.044-.064-.073 0-.044.095-.28.109-.28.016 0-.035-.169-.064-.38-.064s-.38-.028-.38-.064a.064.064 0 00-.063-.064c-.035 0-.064.058-.064.128 0 .143-.095.173-.153.048-.03-.064-.044-.064-.074 0a.158.158 0 01-.133.08c-.052 0-.18.092-.284.205-.147.159-.2.185-.242.116-.042-.069-.096-.043-.243.116-.182.197-.39.272-.39.14 0-.035-.058-.064-.127-.064-.085 0-.127-.043-.127-.128 0-.141-.1-.175-.144-.048-.02.054-.07.034-.156-.064a.449.449 0 00-.293-.144c-.092 0-.167-.03-.167-.065s-.114-.064-.253-.064c-.14 0-.253-.028-.253-.064 0-.035-.112-.064-.248-.064-.137 0-.265-.036-.286-.08-.029-.064-.044-.064-.073 0-.02.044-.12.08-.222.08-.102 0-.185.029-.185.064a.064.064 0 01-.063.064c-.035 0-.063-.057-.063-.128 0-.08-.043-.128-.113-.128-.062 0-.154.058-.204.128-.062.087-.164.128-.317.128-.152 0-.254.042-.316.129-.05.07-.142.128-.204.128s-.113.029-.113.064-.057.064-.127.064-.126.029-.126.064-.114.064-.254.064c-.139 0-.253.029-.253.064 0 .036-.057.064-.126.064-.085 0-.127.043-.127.129 0 .085-.042.128-.127.128-.07 0-.126.029-.126.064s-.086.064-.19.064c-.105 0-.19-.029-.19-.064s-.086-.064-.19-.064c-.105 0-.19-.03-.19-.064 0-.036-.114-.064-.254-.064-.139 0-.253.028-.253.064 0 .035-.112.064-.248.064-.137 0-.265.036-.285.08-.03.064-.044.064-.074 0-.044-.095-.406-.11-.406-.016 0 .035-.074.064-.163.064-.108 0-.247.087-.407.256-.134.141-.282.257-.33.257-.047 0-.127.057-.177.128-.05.07-.136.128-.19.128-.054 0-.14.058-.19.128-.05.07-.142.128-.204.128-.07 0-.112.048-.112.129 0 .07-.029.128-.064.128s-.063.076-.063.169a.458.458 0 01-.143.297c-.096.087-.117.137-.063.157.094.034.108.274.016.274-.035 0-.063.058-.063.128s-.029.129-.064.129-.063.115-.063.256c0 .141-.029.256-.063.256-.035 0-.064.058-.064.128 0 .071.029.129.064.129.037 0 .063.213.063.512 0 .47.01.513.127.513.14 0 .171.1.047.15-.06.025-.056.05.016.107.072.055.076.082.016.106-.124.05-.093.15.047.15.105 0 .127.043.127.251 0 .14.035.265.08.284.059.024.055.05-.017.106-.071.056-.075.082-.016.106.044.018.08.117.08.22s.028.187.063.187.063.057.063.128c0 .07.029.128.064.128.034 0 .063.045.063.1 0 .13.152.285.28.285.065 0 .1.057.1.162 0 .12.15.314.57.735.358.36.57.622.57.707 0 .077.135.268.316.447.175.172.317.357.317.412 0 .055.029.1.063.1.035 0 .064.058.064.129 0 .1.042.128.19.128.132 0 .19.031.19.102 0 .057.085.184.19.282.104.1.19.226.19.283 0 .056.028.102.063.102s.063.058.063.128.029.129.064.129c.034 0 .063.057.063.128 0 .07.028.128.063.128s.064.058.064.128.028.128.063.128.063.058.063.128c0 .086.042.129.127.129.098 0 .127.042.127.192 0 .106.028.192.063.192s.063.171.063.385c0 .213.028.384.064.384.035 0 .063.171.063.385s.028.385.063.385c.092 0 .078.366-.016.41-.063.03-.063.046 0 .076.044.02.08.15.08.288 0 .138.028.251.063.251s.063.058.063.128-.028.128-.063.128-.063.145-.063.32c0 .177.028.321.063.321s.063.116.063.257c0 .14-.028.256-.063.256s-.063.087-.063.193c0 .105.028.192.063.192s.063.057.063.128c0 .07-.028.128-.063.128s-.063.115-.063.256c0 .243-.011.257-.19.257-.105 0-.19-.029-.19-.064s-.084-.064-.185-.064c-.102 0-.2-.036-.217-.08-.024-.06-.05-.057-.105.016-.055.072-.08.076-.105.016-.018-.044-.087-.08-.154-.08-.066 0-.121-.03-.121-.065s-.086-.064-.19-.064c-.105 0-.19-.029-.19-.064s-.085-.064-.19-.064c-.104 0-.19-.029-.19-.064s-.072-.064-.161-.064c-.178 0-.472-.258-.472-.414 0-.054-.029-.099-.064-.099-.091 0-.078-.239.016-.283.064-.03.064-.045 0-.075-.043-.02-.079-.092-.079-.16 0-.067-.028-.123-.063-.123s-.064-.115-.064-.256c0-.141-.028-.257-.063-.257s-.063-.057-.063-.128c0-.07-.029-.128-.064-.128-.034 0-.063-.086-.063-.192 0-.106-.028-.192-.063-.192s-.064-.087-.064-.193c0-.106-.028-.192-.063-.192s-.063-.08-.063-.178a.352.352 0 00-.127-.27.352.352 0 01-.126-.271c0-.098-.029-.178-.064-.178s-.063-.087-.063-.193c0-.105-.029-.192-.063-.192-.035 0-.064-.08-.064-.178a.352.352 0 00-.126-.27c-.07-.052-.127-.138-.127-.193 0-.055-.057-.141-.127-.192-.07-.051-.126-.144-.126-.207 0-.062-.029-.114-.064-.114s-.063-.057-.063-.128c0-.07-.029-.128-.063-.128-.035 0-.064-.08-.064-.178a.352.352 0 00-.126-.27c-.07-.052-.127-.133-.127-.182 0-.048-.086-.169-.19-.268-.117-.11-.19-.243-.19-.346 0-.091-.029-.166-.063-.166-.035 0-.064-.052-.064-.114 0-.063-.057-.156-.126-.207-.07-.05-.127-.143-.127-.206s-.028-.114-.063-.114-.064-.11-.064-.242c0-.17-.038-.27-.126-.335-.07-.05-.127-.144-.127-.207 0-.062-.028-.113-.063-.113s-.064-.087-.064-.193c0-.106-.028-.192-.063-.192s-.063-.058-.063-.128-.029-.129-.064-.129c-.034 0-.063-.057-.063-.128 0-.07-.028-.128-.063-.128s-.064-.086-.064-.192c0-.106-.028-.193-.063-.193s-.063-.086-.063-.192c0-.106-.029-.192-.064-.192-.034 0-.063-.058-.063-.128s-.028-.128-.063-.128-.064-.076-.064-.17a.458.458 0 00-.142-.296c-.097-.087-.117-.138-.063-.157.093-.034.107-.275.016-.275-.035 0-.064-.086-.064-.192 0-.106-.028-.192-.063-.192s-.063-.056-.063-.123c0-.068-.036-.14-.08-.16-.063-.03-.063-.045 0-.075.094-.044.108-.412.016-.412-.035 0-.063-.086-.063-.192 0-.106-.029-.192-.063-.192-.035 0-.064-.116-.064-.257 0-.14.029-.256.064-.256.111 0 .067-.225-.064-.32-.101-.074-.126-.166-.126-.463 0-.204-.029-.37-.064-.37s-.063-.087-.063-.193c0-.106.028-.192.063-.192s.064-.116.064-.257c0-.14-.029-.256-.064-.256s-.063-.115-.063-.256c0-.141.028-.257.063-.257s.064-.086.064-.192c0-.106.028-.192.063-.192s.063-.087.063-.193c0-.105.029-.192.064-.192.034 0 .063-.115.063-.256 0-.141.028-.257.063-.257s.064-.057.064-.128c0-.07.028-.128.063-.128s.063-.17.063-.385c0-.341.014-.384.127-.384.084 0 .126-.043.126-.128 0-.07.029-.129.064-.129s.063-.057.063-.128c0-.07.029-.128.063-.128.035 0 .064-.086.064-.192 0-.106.028-.192.063-.192s.063-.058.063-.129c0-.07.029-.128.064-.128s.063-.086.063-.192c0-.132.031-.192.1-.192.115 0 .28-.15.28-.256 0-.04.143-.214.317-.385.174-.172.316-.358.316-.413 0-.055.029-.1.064-.1.034 0 .063-.058.063-.128 0-.074.042-.129.098-.129.055 0 .267-.173.472-.384.205-.212.417-.385.471-.385.055 0 .099-.029.099-.064s.05-.064.113-.064c.062 0 .153-.058.204-.128.05-.07.142-.128.204-.128.061 0 .112-.03.112-.064 0-.036.05-.064.113-.064.062 0 .154-.058.204-.129.102-.144.287-.17.343-.048.03.064.044.064.074 0 .02-.044.091-.08.158-.08s.121-.029.121-.064.057-.064.127-.064.127-.029.127-.064.107-.064.239-.064c.167 0 .267-.04.33-.128.05-.071.143-.129.205-.129s.112-.028.112-.064c0-.035.057-.064.127-.064s.127-.029.127-.064.114-.064.253-.064c.14 0 .253-.029.253-.064 0-.096.742-.081.787.016.03.064.044.064.073 0 .02-.044.149-.08.285-.08.137 0 .248-.03.248-.064 0-.036.029-.064.064-.064s.063.028.063.064zM1.267 6.157c0 .07-.029.128-.064.128s-.063-.057-.063-.128c0-.07.028-.128.063-.128s.064.058.064.128zm10.285 2.388c.03.064.044.064.074 0 .044-.095.28-.109.28-.016 0 .035.085.064.19.064.104 0 .19.029.19.064s.1.064.224.064c.156 0 .274.05.386.164l.162.163-.133.116a.436.436 0 00-.133.286c0 .093-.028.168-.063.168s-.063.116-.063.257c0 .14-.029.256-.064.256s-.063.084-.063.187-.036.204-.08.225c-.063.03-.063.044 0 .074.094.045.109.412.017.412-.035 0-.064.057-.064.128 0 .07.029.128.063.128.035 0 .064.115.064.256 0 .141-.029.257-.063.257-.035 0-.064.057-.064.128 0 .07-.028.128-.063.128-.12 0-.063.338.079.466.097.087.117.138.063.157-.093.034-.107.274-.015.274.034 0 .063.058.063.129 0 .085.042.128.127.128.084 0 .126.043.126.128 0 .07.029.128.063.128.035 0 .064.087.064.192 0 .193.09.264.144.113.02-.055.07-.034.156.064.07.08.161.144.204.144.043 0 .158.086.256.192.097.106.223.193.278.193.056 0 .102.028.102.064 0 .035.057.064.126.064.07 0 .127-.03.127-.064 0-.036.029-.064.063-.064.035 0 .064.045.064.1 0 .14.203.341.237.236.015-.044.081-.08.148-.08.067 0 .121-.029.121-.064s.086-.064.19-.064c.105 0 .19.029.19.064s.057.064.127.064c.08 0 .127-.043.127-.114 0-.063.057-.156.126-.207.07-.05.127-.13.127-.178 0-.047.142-.227.316-.398.175-.172.317-.358.317-.413 0-.055.029-.1.064-.1.034 0 .063-.116.063-.257 0-.14.028-.256.063-.256s.063-.058.063-.128.029-.128.064-.128.063-.113.063-.251c0-.139.036-.268.08-.289.063-.03.063-.045 0-.074-.044-.021-.08-.122-.08-.225 0-.103-.028-.187-.063-.187s-.064-.115-.064-.256c0-.141-.028-.257-.063-.257s-.063-.075-.063-.166c0-.103-.073-.236-.19-.346-.117-.11-.19-.244-.19-.347 0-.123-.033-.166-.127-.166-.073 0-.127-.043-.127-.1 0-.13-.152-.285-.28-.285-.055 0-.1-.029-.1-.064s-.056-.064-.126-.064c-.073 0-.127-.043-.127-.1 0-.13-.152-.285-.28-.285-.055 0-.1-.028-.1-.064 0-.035-.057-.064-.126-.064-.07 0-.127-.029-.127-.064s.055-.064.121-.064c.067 0 .136-.036.154-.08.024-.06.05-.057.105.016.055.073.08.077.105.016.018-.044.115-.08.217-.08.101 0 .185-.029.185-.064 0-.094.489-.079.533.016.03.064.044.064.074 0 .06-.133.491-.099.596.048.07.097.164.128.394.128.166 0 .302.029.302.064s.057.064.127.064.127.03.127.064c0 .036.043.064.096.064.125 0 .79.673.79.8 0 .054.029.098.064.098s.063.058.063.128.028.128.063.128.064.058.064.128-.029.129-.064.129-.063.115-.063.256c0 .141.028.256.063.256.092 0 .078.24-.015.279-.06.024-.056.05.015.106.072.056.076.082.016.106-.094.039-.107.278-.016.278.035 0 .064.116.064.257 0 .14.028.256.063.256.12 0 .064.337-.077.461-.12.105-.127.133-.048.189.07.05.074.073.014.098-.048.02-.079.155-.079.347 0 .174-.029.315-.063.315-.035 0-.064.058-.064.129 0 .07-.028.128-.063.128s-.063.057-.063.128c0 .07-.029.128-.064.128s-.063.133-.063.295c0 .245-.032.325-.19.474-.105.1-.19.226-.19.282 0 .057-.029.103-.063.103-.035 0-.064.051-.064.114s-.057.156-.126.206c-.07.051-.127.138-.127.193 0 .055-.057.141-.127.192-.07.05-.126.144-.126.206 0 .063-.029.114-.064.114-.034 0-.063.075-.063.167 0 .102-.073.236-.19.346-.104.099-.19.226-.19.282 0 .057-.028.103-.063.103s-.064.058-.064.128-.028.128-.063.128-.063.052-.063.114c0 .063-.057.156-.127.207-.07.05-.127.143-.127.206s-.028.114-.063.114-.063.058-.063.128-.029.128-.064.128c-.034 0-.063.058-.063.129 0 .07-.028.128-.063.128s-.063.058-.063.128-.029.128-.064.128-.063.058-.063.129c0 .07-.029.128-.063.128-.035 0-.064.086-.064.192 0 .106-.028.192-.063.192s-.063.075-.063.167c0 .102-.074.236-.19.346-.117.11-.19.244-.19.346 0 .092-.029.167-.064.167-.034 0-.063.058-.063.128s-.028.128-.063.128-.064.058-.064.128-.028.129-.063.129-.063.144-.063.32c0 .176-.029.32-.064.32s-.063.087-.063.193c0 .106-.028.192-.063.192-.094 0-.08.623.016.668.063.03.063.045 0 .075-.044.02-.08.121-.08.224 0 .103-.028.187-.063.187s-.063.086-.063.192c0 .106-.029.192-.064.192a.064.064 0 00-.063.064c0 .036.057.065.127.065.084 0 .126.042.126.128 0 .07-.028.128-.063.128-.092 0-.078.367.016.411.063.03.063.045 0 .075-.044.02-.08.12-.08.219 0 .1.036.198.08.22.063.029.063.044 0 .074-.103.048-.103.264 0 .299.056.019.05.055-.028.133-.114.116-.558.15-.558.043 0-.035-.169-.064-.38-.064s-.38.029-.38.064c0 .04-.295.064-.76.064-.464 0-.76-.025-.76-.064 0-.035-.057-.064-.126-.064-.07 0-.127.029-.127.064s-.057.064-.127.064-.126-.029-.126-.064-.055-.064-.122-.064c-.066 0-.138-.036-.158-.08-.03-.064-.044-.064-.074 0-.044.095-.533.11-.533.016 0-.035-.057-.064-.127-.064s-.126-.029-.126-.064.028-.064.063-.064.063-.145.063-.32c0-.177.029-.321.064-.321.095 0 .08-.75-.016-.796-.063-.03-.063-.045 0-.075.094-.044.108-.411.016-.411-.035 0-.064-.058-.064-.128s.029-.129.064-.129c.091 0 .078-.24-.016-.278-.06-.024-.056-.05.016-.106.072-.056.075-.082.016-.107-.057-.023-.08-.232-.08-.732 0-.423-.024-.7-.063-.7-.035 0-.063-.057-.063-.128 0-.07-.029-.128-.064-.128-.034 0-.063-.058-.063-.128s-.028-.128-.063-.128-.064-.084-.064-.187-.035-.202-.079-.22c-.06-.024-.056-.05.016-.106.072-.056.076-.082.016-.106-.044-.019-.08-.143-.08-.284 0-.138-.028-.25-.063-.25-.034 0-.063-.052-.063-.115s-.057-.156-.127-.206a.352.352 0 01-.126-.271c0-.098-.029-.178-.064-.178-.034 0-.063-.058-.063-.128 0-.086-.042-.128-.126-.128-.085 0-.127-.043-.127-.129 0-.07-.029-.128-.063-.128-.035 0-.064-.051-.064-.114s-.057-.155-.126-.206c-.07-.051-.127-.138-.127-.193 0-.055-.057-.141-.127-.192-.07-.05-.126-.131-.126-.18 0-.047-.114-.197-.254-.333-.14-.135-.253-.28-.253-.32 0-.106-.164-.256-.28-.256-.058 0-.1-.055-.1-.129 0-.085-.042-.128-.127-.128-.084 0-.126-.043-.126-.128 0-.074-.043-.128-.1-.128-.116 0-.28-.15-.28-.257 0-.094-.16-.256-.252-.256-.12 0-.382-.308-.382-.45 0-.078-.134-.268-.316-.447-.174-.172-.317-.358-.317-.413 0-.055-.028-.1-.063-.1s-.063-.144-.063-.32c0-.177-.029-.321-.064-.321s-.063-.116-.063-.257c0-.14-.029-.256-.063-.256-.092 0-.079-.239.015-.283.064-.03.064-.045 0-.075-.043-.02-.079-.09-.079-.155 0-.064.036-.132.08-.15.06-.024.055-.05-.016-.106-.072-.056-.076-.082-.016-.106.05-.021.079-.166.079-.398 0-.292.025-.384.127-.458a.352.352 0 00.126-.265c0-.095.036-.187.08-.205.06-.025.057-.047-.011-.096-.073-.051-.04-.113.174-.32.145-.142.264-.303.264-.358 0-.056.05-.102.112-.102s.154-.057.204-.128c.05-.07.142-.128.204-.128s.113-.029.113-.064c0-.113.222-.068.317.064.07.098.164.128.394.128.26 0 .302.018.302.128 0 .071-.028.129-.063.129s-.063.115-.063.256c0 .141-.029.256-.064.256-.034 0-.063.116-.063.257 0 .14-.029.256-.063.256-.035 0-.064.087-.064.192 0 .106-.028.193-.063.193s-.063.057-.063.128c0 .07-.029.128-.064.128-.034 0-.063.11-.063.242 0 .17.038.27.127.335.101.074.126.166.126.463 0 .204-.028.37-.063.37s-.063.087-.063.193c0 .105.028.192.063.192s.063.057.063.128c0 .141.1.175.145.048.015-.044.052-.057.082-.029.03.029.013.082-.039.118-.07.05-.073.073-.014.098.044.017.08.081.08.14 0 .06.057.151.126.202.07.05.127.144.127.206 0 .13.102.155.144.034.02-.054.07-.034.156.064a.431.431 0 00.33.145c.154 0 .262.061.447.256.226.239.267.256.596.256.194 0 .353-.029.353-.064a.064.064 0 00-.063-.064.064.064 0 01-.063-.064c0-.035.142-.064.316-.064.275 0 .317-.017.317-.128 0-.1.042-.128.19-.128s.19-.029.19-.129c0-.07.029-.128.063-.128.035 0 .064-.051.064-.114s.057-.155.126-.206a.352.352 0 00.127-.265c0-.095.036-.19.08-.21.063-.03.063-.046 0-.075-.124-.058-.094-.155.047-.155.07 0 .126-.03.126-.064a.064.064 0 00-.063-.065c-.035 0-.063-.17-.063-.384s-.029-.385-.064-.385-.063-.084-.063-.187c0-.102-.036-.201-.08-.22-.059-.024-.055-.05.017-.106.071-.055.075-.081.016-.106-.044-.018-.08-.117-.08-.22 0-.102-.028-.186-.063-.186s-.063-.058-.063-.128-.029-.129-.064-.129c-.034 0-.063-.138-.063-.306 0-.233-.03-.328-.127-.399-.07-.05-.126-.131-.126-.179 0-.138-.168-.27-.344-.27-.114 0-.163-.034-.163-.113 0-.063-.057-.156-.127-.207-.07-.05-.126-.144-.126-.206 0-.072.047-.114.126-.114.085 0 .127-.043.127-.129 0-.105.042-.128.24-.128.166 0 .267-.039.33-.128a.345.345 0 01.267-.128c.097 0 .176-.029.176-.064 0-.095.616-.08.66.016zm3.267 1.522c.24.247.48.449.535.449.054 0 .098.054.098.123 0 .067.036.137.08.155.059.024.055.05-.017.106-.072.056-.075.082-.016.107.044.018.08.081.08.141 0 .06.057.15.126.201.131.095.175.32.064.32-.092 0-.079.24.015.284.064.03.064.045 0 .074-.043.021-.079.09-.079.155s-.035.133-.079.15c-.06.025-.056.05.016.107.072.055.075.082.016.106-.044.018-.08.103-.08.19 0 .175-.503.73-.663.73-.053 0-.096.028-.096.063 0 .114-.223.069-.317-.064-.05-.07-.129-.128-.174-.128-.115 0-.65-.552-.65-.671 0-.055-.055-.098-.126-.098-.105 0-.127-.043-.127-.257 0-.14.029-.256.064-.256.037 0 .063-.235.063-.577 0-.342.026-.577.063-.577.035 0 .064-.115.064-.256 0-.141.028-.256.063-.256s.063-.087.063-.193c0-.105.029-.192.064-.192s.063-.044.063-.099c0-.15.14-.28.304-.283.098-.002.288.144.583.446zm-5.89.064c.05.07.142.128.204.128s.113.046.113.103c0 .056.085.183.19.282.104.099.19.226.19.282 0 .06.053.103.126.103.106 0 .127.042.127.256 0 .141.029.256.063.256.036 0 .064.171.064.385s.028.384.063.384.063.138.063.307c0 .233-.03.328-.126.399a.341.341 0 00-.127.243c0 .17-.134.333-.275.333a.156.156 0 00-.131.08c-.03.065-.045.065-.074 0-.02-.043-.12-.08-.222-.08-.101 0-.184-.028-.184-.064 0-.035-.045-.064-.1-.064-.122 0-.28-.152-.28-.27 0-.047-.057-.128-.127-.178-.07-.051-.127-.144-.127-.207s-.028-.114-.063-.114-.063-.113-.063-.251-.036-.268-.08-.288c-.063-.03-.063-.045 0-.075.054-.025.08-.202.08-.545 0-.465.01-.507.126-.507.099 0 .127-.043.127-.193 0-.106.028-.192.063-.192s.064-.102.064-.227c0-.2.095-.405.191-.412.019 0 .075.056.125.126zM4.686 21.604a.064.064 0 01-.063.065.064.064 0 01-.063-.065c0-.035.028-.064.063-.064s.063.03.063.064zm13.552 6.73c0 .071-.028.129-.063.129s-.063.057-.063.128c0 .07.028.128.063.128s.063.115.063.256c0 .141-.028.257-.063.257s-.063.058-.063.128.028.128.063.128c.127 0 .06.33-.101.493-.135.136-.176.15-.227.077-.047-.069-.069-.07-.094-.009-.017.044-.086.08-.153.08s-.122.029-.122.064c0 .036-.169.064-.38.064-.21 0-.38.029-.38.064 0 .036-.085.065-.19.065-.104 0-.19.028-.19.064 0 .035-.142.064-.316.064-.174 0-.317.029-.317.064 0 .037-.19.064-.443.064s-.443.027-.443.064c0 .036-.17.064-.38.064-.211 0-.38.029-.38.064s-.086.064-.19.064c-.105 0-.19-.029-.19-.064 0-.093-.363-.078-.407.016-.03.064-.044.064-.074 0-.043-.095-.406-.109-.406-.016 0 .037-.19.064-.443.064s-.443-.027-.443-.064c0-.035-.17-.064-.38-.064-.211 0-.38.029-.38.064s-.057.064-.127.064-.127-.029-.127-.064c0-.092-.236-.079-.28.016-.029.064-.044.064-.073 0-.025-.054-.2-.08-.538-.08-.292 0-.502-.027-.502-.064 0-.038-.232-.064-.57-.064-.338 0-.57-.026-.57-.064 0-.035-.054-.064-.121-.064s-.136-.036-.154-.08c-.024-.06-.05-.057-.105.016-.055.072-.08.076-.105.016-.02-.05-.16-.08-.38-.08-.354 0-.528-.092-.528-.279 0-.052.036-.112.08-.133.063-.03.063-.045 0-.075-.048-.022-.08-.162-.08-.347 0-.185-.032-.325-.08-.347-.062-.03-.062-.045 0-.075.044-.02.08-.121.08-.224 0-.144.029-.187.127-.187.07 0 .126.029.126.064s.086.064.19.064c.105 0 .19.03.19.064 0 .036.143.064.317.064.174 0 .317.03.317.065s.114.064.253.064c.14 0 .253.029.253.064 0 .037.211.064.507.064.295 0 .506.027.506.064 0 .035.084.064.185.064.102 0 .202.036.222.08.03.064.044.064.074 0 .044-.097.786-.112.786-.016 0 .093.236.08.28-.016.03-.064.044-.064.074 0 .043.095.533.11.533.016 0-.036.188-.064.438-.064.29 0 .448-.027.47-.08.024-.06.05-.057.105.016.055.073.08.076.105.016.038-.095.275-.109.275-.016 0 .035.057.064.126.064.07 0 .127-.029.127-.064 0-.038.23-.064.565-.064.392 0 .574-.025.597-.08.024-.06.05-.057.105.016.055.072.08.076.105.016.018-.045.14-.08.275-.08.133 0 .259-.036.28-.08.029-.065.044-.065.073 0 .044.094.407.109.407.016 0-.037.19-.064.443-.064s.443-.028.443-.065c0-.035.08-.064.176-.064a.344.344 0 00.267-.128c.05-.07.136-.128.19-.128.055 0 .14-.058.19-.128a.344.344 0 01.268-.129c.096 0 .176-.028.176-.064 0-.035.028-.064.063-.064s.063.058.063.128zm-2.153 2.372a.064.064 0 01-.063.064.064.064 0 01-.063-.064c0-.035.028-.064.063-.064s.063.029.063.064zm.887 3.564c0 .02-.086.119-.19.218-.105.099-.19.212-.19.252 0 .094-.418.517-.51.517-.04 0-.152.086-.25.192-.098.106-.223.193-.279.193-.059 0-.101.053-.101.128 0 .085-.042.128-.127.128-.07 0-.126.029-.126.064s-.165.064-.366.064c-.294 0-.385.025-.458.128-.079.112-.164.128-.647.128-.328 0-.556.027-.556.065 0 .038-.232.064-.57.064-.338 0-.57.026-.57.064 0 .035-.085.064-.19.064-.104 0-.19-.029-.19-.064 0-.037-.19-.064-.443-.064s-.443-.028-.443-.065c0-.035-.086-.064-.19-.064-.105 0-.19-.028-.19-.064 0-.035-.08-.064-.176-.064a.344.344 0 01-.268-.128c-.05-.07-.142-.128-.204-.128-.061 0-.112-.029-.112-.064 0-.036-.057-.064-.127-.064s-.127-.03-.127-.064c0-.036-.044-.065-.099-.065-.122 0-.28-.152-.28-.27 0-.047-.057-.127-.127-.178-.07-.051-.127-.13-.127-.177 0-.117-.289-.4-.409-.4-.055 0-.097-.055-.097-.128 0-.07.028-.129.063-.129s.063.03.063.065.112.064.248.064c.137 0 .265.036.285.08.03.064.045.064.074 0 .044-.095.28-.109.28-.016 0 .035.057.064.126.064.07 0 .127.029.127.064 0 .037.19.064.443.064.254 0 .444.028.444.064 0 .035.057.064.126.064.07 0 .127-.029.127-.064 0-.038.232-.064.57-.064.338 0 .57.026.57.064 0 .035.085.064.19.064.104 0 .19-.029.19-.064s.085-.064.19-.064c.104 0 .19.029.19.064 0 .093.237.08.275-.016.024-.06.05-.056.105.016.055.073.08.077.105.016.018-.044.113-.08.212-.08.098 0 .195.036.216.08.03.064.044.064.074 0 .022-.048.16-.08.348-.08.171 0 .311-.029.311-.064 0-.04.296-.064.76-.064.465 0 .76-.025.76-.064 0-.035.057-.064.127-.064s.127-.03.127-.064c0-.036.168-.065.38-.065.21 0 .38-.028.38-.064 0-.035.056-.064.126-.064s.127.018.127.039z"/></svg>