<svg width="18" height="18" viewBox="0 0 18 18" fill="none" xmlns="http://www.w3.org/2000/svg"><g clip-path="url(#clip0)"><path fill-rule="evenodd" clip-rule="evenodd" d="M12 5.25h-1.443c-.462 0-.807.189-.807.667v.833H12L11.822 9H9.75v6H7.5V9H6V6.75h1.5V5.308C7.5 3.791 8.298 3 10.095 3H12v2.25zM3.75 0A3.75 3.75 0 000 3.75v10.5A3.75 3.75 0 003.75 18h10.5A3.75 3.75 0 0018 14.25V3.75A3.75 3.75 0 0014.25 0H3.75z" fill="#000"/></g><defs><clipPath id="clip0"><path fill="#fff" d="M0 0h18v18H0z"/></clipPath></defs></svg>