<svg viewBox="0 0 35 40" xmlns="http://www.w3.org/2000/svg"><path fill-rule="evenodd" clip-rule="evenodd" d="M16.092.582c-.291.311-.53.811-.53 1.112 0 .3-.212.698-.471.885-.277.2-.471.61-.471.994 0 .36-.106.655-.236.655s-.236.424-.236.943c0 .518-.106.942-.235.942-.13 0-.236.424-.236.943 0 .518-.106.942-.236.942s-.235.629-.235 1.414c0 .786-.105 1.414-.236 1.414-.14 0-.236.864-.236 2.12 0 1.167-.057 2.122-.128 2.122-.263 0-1.285-1.169-1.285-1.47 0-.17-.213-.464-.472-.651s-.471-.528-.471-.76c0-.23-.106-.418-.236-.418s-.235-.212-.235-.472c0-.259-.106-.47-.236-.47s-.236-.213-.236-.472c0-.26-.106-.471-.235-.471-.13 0-.236-.164-.236-.365 0-.2-.265-.629-.589-.953l-.589-.589-.59.59c-.406.406-.588.847-.588 1.424 0 .46-.106.835-.236.835s-.236.53-.236 1.178c0 .648-.106 1.178-.235 1.178-.148 0-.236 1.493-.236 4.007 0 2.513.088 4.005.236 4.005.137 0 .235.786.235 1.886 0 1.1.099 1.885.236 1.885.13 0 .236.106.236.235 0 .417-.828.252-1.178-.235-.187-.26-.486-.472-.665-.472-.178 0-.622-.318-.985-.706-.363-.39-.83-.707-1.037-.707-.207 0-.377-.106-.377-.236 0-.35-.69-.285-1.077.101-.386.386-.45 1.077-.101 1.077.13 0 .236.53.236 1.178 0 .648.106 1.178.235 1.178.13 0 .236.425.236.943s.106.943.236.943.235.4.235.89c0 .62.143.994.471 1.23.26.187.472.529.472.76 0 .23.106.419.235.419.13 0 .236.212.236.471 0 .26.106.471.236.471s.235.16.235.357c0 .465 4.363 4.827 4.828 4.827.196 0 .356.106.356.236s.213.236.472.236.471.106.471.235c0 .13.212.236.471.236.26 0 .472.106.472.236s.318.235.707.235c.388 0 .707.095.707.21 0 .304 1.428.527 4.182.653 1.62.074 2.415.027 2.415-.14 0-.145.503-.252 1.179-.252.648 0 1.178-.105 1.178-.235s.424-.236.942-.236c.519 0 .943-.106.943-.235 0-.13.318-.236.707-.236.389 0 .707-.106.707-.236s.212-.235.471-.235c.26 0 .471-.106.471-.236s.19-.236.42-.236c.23 0 .572-.212.759-.47.187-.26.477-.472.645-.472.399 0 3.36-2.962 3.36-3.36 0-.169.213-.46.472-.646.26-.187.471-.528.471-.76 0-.23.106-.418.236-.418s.236-.212.236-.472c0-.259.105-.47.235-.47s.236-.213.236-.472c0-.26.106-.472.235-.472.13 0 .236-.212.236-.47 0-.26.106-.472.236-.472s.235-.424.235-.943c0-.518.106-.942.236-.942s.236-.53.236-1.178c0-1.021-.063-1.179-.472-1.179-.259 0-.471.106-.471.236s-.212.236-.471.236c-.26 0-.471.106-.471.235 0 .13-.213.236-.472.236s-.471.106-.471.236-.189.235-.42.235c-.23 0-.572.212-.758.471-.351.487-1.178.653-1.178.236 0-.13.105-.236.235-.236.14 0 .236-.864.236-2.12 0-1.257.096-2.121.235-2.121.131 0 .236-.628.236-1.414 0-.785.105-1.414.236-1.414.344 0 .29-1.823-.06-1.965-.222-.09-.207-.186.06-.391.267-.205.281-.301.059-.391-.208-.085-.295-.808-.295-2.456 0-1.401-.095-2.337-.236-2.337-.13 0-.235-.318-.235-.707 0-.389-.106-.707-.236-.707a.236.236 0 00-.235.236c0 .13-.164.235-.365.235-.419 0-1.52 1.029-1.52 1.42 0 .343-.598.936-.943.936s-.943.594-.943.937c0 .391-1.101 1.42-1.52 1.42-.269 0-.365-.25-.365-.943 0-.518-.106-.942-.236-.942s-.235-.318-.235-.707c0-.389-.106-.707-.236-.707s-.236-.424-.236-.943c0-.518-.106-.942-.235-.942-.13 0-.236-.212-.236-.471 0-.26-.106-.472-.236-.472s-.235-.318-.235-.707c0-.388-.106-.707-.236-.707s-.235-.294-.235-.654c0-.385-.195-.796-.472-.995-.259-.187-.471-.528-.471-.76 0-.23-.106-.418-.236-.418s-.235-.212-.235-.472c0-.259-.106-.47-.236-.47s-.236-.213-.236-.472c0-.26-.106-.471-.235-.471-.13 0-.236-.213-.236-.472s-.106-.471-.236-.471-.235-.163-.235-.361c0-.3-1.484-2.028-1.7-1.981-.038.008-.306.27-.598.58zM17.34 2.45c.318.318.579.742.579.943 0 .2.106.364.235.364.13 0 .236.189.236.419 0 .23.212.572.471.76.277.199.471.61.471.994 0 .36.107.655.236.655.13 0 .236.212.236.47 0 .26.106.472.235.472.13 0 .236.318.236.707 0 .389.106.707.236.707s.235.212.235.471c0 .26.106.472.236.472s.236.318.236.707c0 .388.106.706.235.706.13 0 .236.319.236.707 0 .39.106.707.235.707.13 0 .236.318.236.707 0 .389.106.707.236.707s.235.318.235.707c0 .389.107.707.236.707.13 0 .236.424.236.943 0 .689.097.942.36.942.2 0 1.521-1.166 2.939-2.592 1.417-1.426 2.633-2.592 2.702-2.592.07 0 .126 1.803.126 4.006 0 2.514-.088 4.006-.236 4.006-.14 0-.236.864-.236 2.12 0 1.257-.096 2.121-.235 2.121-.135 0-.236.7-.236 1.63 0 1.088-.097 1.663-.293 1.728-.212.07-.185.204.102.49.432.433 1.134.53 1.134.158 0-.13.212-.235.47-.235.26 0 .472-.106.472-.236s.17-.236.377-.236.674-.318 1.037-.707c.363-.388.83-.707 1.037-.707.207 0 .377-.105.377-.235s.106-.236.235-.236c.13 0 .236.318.236.707 0 .389-.106.707-.236.707s-.235.189-.235.42c0 .23-.212.572-.471.758-.277.2-.472.61-.472.995 0 .36-.106.655-.236.655s-.235.212-.235.471c0 .26-.106.471-.236.471s-.235.212-.235.472c0 .259-.106.471-.236.471s-.236.16-.236.357c0 .466-3.418 3.885-3.884 3.885-.197 0-.357.106-.357.235 0 .13-.212.236-.472.236-.259 0-.47.106-.47.236s-.213.235-.472.235c-.26 0-.471.106-.471.236s-.424.235-.943.235c-.518 0-.943.106-.943.236s-.424.236-.942.236-.943.106-.943.235c0 .138-.785.236-1.885.236s-1.885.098-1.885.236c0 .13-.318.235-.707.235-.389 0-.707-.106-.707-.235 0-.13-.53-.236-1.178-.236-.648 0-1.178-.106-1.178-.236s-.212-.235-.471-.235c-.26 0-.472-.106-.472-.236s-.212-.236-.471-.236c-.26 0-.471-.106-.471-.235 0-.13-.213-.236-.472-.236s-.471-.106-.471-.236-.212-.235-.471-.235c-.26 0-.472-.106-.472-.236s-.162-.236-.36-.236c-.415 0-1.996-1.501-1.996-1.895 0-.144-.424-.67-.943-1.168-.518-.498-.942-1.05-.942-1.225 0-.176-.212-.473-.471-.66-.26-.187-.472-.528-.472-.759 0-.23-.106-.42-.235-.42-.13 0-.236-.317-.236-.706 0-.389-.106-.707-.236-.707s-.235-.318-.235-.707c0-.389-.106-.707-.236-.707s-.236-.53-.236-1.178c0-.648-.106-1.178-.235-1.178a.236.236 0 01-.236-.236c0-.59.848-.119 2.121 1.178.763.778 1.53 1.414 1.702 1.414.173 0 .468.212.654.471.187.26.529.472.76.472.331 0 .419-.196.419-.943 0-.518-.106-.943-.236-.943-.135 0-.236-.706-.236-1.649 0-.942-.1-1.65-.235-1.65-.151 0-.236-2.12-.236-5.89 0-3.77.085-5.892.236-5.892.13 0 .235-.318.235-.707 0-.388.106-.706.236-.706s.236.188.236.419c0 .23.212.572.47.759.26.187.472.528.472.759 0 .23.106.419.236.419s.235.212.235.471c0 .26.107.471.236.471.13 0 .236.213.236.472s.106.471.235.471c.13 0 .236.167.236.372s.424.78.943 1.278c.518.498.942 1.072.942 1.277 0 .215.2.372.472.372.392 0 .47-.157.47-.942 0-.519.107-.943.236-.943.135 0 .236-.707.236-1.65 0-.942.101-1.649.236-1.649.134 0 .235-.707.235-1.65 0-.942.101-1.649.236-1.649.13 0 .236-.318.236-.707 0-.389.106-.707.235-.707.13 0 .236-.53.236-1.178 0-.648.106-1.178.236-1.178s.235-.318.235-.707c0-.39.106-.707.236-.707s.236-.27.236-.6c0-.495.385-1.241.658-1.276.038-.005.33.251.648.57zm.107 10.732c0 .519-.106.943-.235.943-.135 0-.236.707-.236 1.65 0 .942-.101 1.65-.236 1.65-.13 0-.235.628-.235 1.413s-.105 1.414-.236 1.414c-.13 0-.235.424-.235.942 0 .519-.107.943-.236.943-.13 0-.236.318-.236.707 0 1.037-.549.9-1.885-.471-.631-.648-1.268-1.179-1.414-1.179-.146 0-.782-.53-1.414-1.178-.631-.648-1.207-1.178-1.28-1.178-.074 0-.134.424-.134.942 0 .519.107.943.236.943.135 0 .236.707.236 1.65 0 .942.1 1.65.235 1.65.13 0 .236.53.236 1.177 0 .648.106 1.178.236 1.178s.235.53.235 1.179c0 .648.106 1.178.236 1.178s.236.212.236.471c0 .26.106.471.235.471.13 0 .236.53.236 1.179 0 .648-.106 1.178-.236 1.178a.236.236 0 01-.235-.236c0-.13-.213-.235-.472-.235s-.471-.106-.471-.236-.318-.236-.707-.236c-.389 0-.707-.106-.707-.235 0-.13-.415-.236-.923-.236-.525 0-.965-.126-1.02-.292-.114-.34-.885.317-.885.754 0 .366 1.569 1.895 1.944 1.895.17 0 .462.212.649.47.186.26.528.472.759.472.23 0 .419.106.419.236s.188.235.419.235c.23 0 .572.212.759.472.2.276.61.471.995.471.36 0 .655.106.655.236s.318.235.706.235c.39 0 .707.106.707.236 0 .137.786.236 1.886.236 1.1 0 1.885.098 1.885.235 0 .13.318.236.706.236.39 0 .707-.106.707-.236s.507-.236 1.127-.236c.855 0 1.207-.113 1.465-.47.187-.26.506-.472.707-.472.202 0 .52-.212.707-.471.187-.26.486-.472.665-.472.178 0 .622-.318.985-.706.363-.39.83-.707 1.037-.707.22 0 .377-.197.377-.472 0-.259.106-.471.235-.471.13 0 .236-.212.236-.471 0-.42-.157-.472-1.414-.472-.785 0-1.414.105-1.414.236 0 .13-.212.236-.471.236-.393 0-.471-.157-.471-.943 0-.518.106-.943.235-.943.13 0 .236-.318.236-.706 0-.39.106-.707.236-.707s.235-.424.235-.943c0-.518.106-.943.236-.943s.236-.424.236-.942.106-.943.235-.943c.13 0 .236-.424.236-.942 0-.519.106-.943.236-.943s.235-.628.235-1.414c0-1.256-.052-1.413-.471-1.413-.27 0-.471.157-.471.368 0 .203-.53.885-1.179 1.517-.648.631-1.178 1.268-1.178 1.415 0 .147-.159.427-.353.621-.638.637-1.06-.121-1.06-1.902 0-.875-.103-1.548-.236-1.548-.13 0-.236-.53-.236-1.178 0-.648-.106-1.179-.236-1.179s-.235-.318-.235-.706c0-.39-.106-.707-.236-.707s-.236-.53-.236-1.179c0-.648-.106-1.178-.235-1.178-.13 0-.236-.212-.236-.471 0-.26-.106-.472-.236-.472s-.235-.212-.235-.47c0-.315-.157-.472-.471-.472-.393 0-.472.157-.472.942zm1.414 11.076a.236.236 0 01-.471 0c0-.13.106-.236.235-.236.13 0 .236.106.236.236zm-.337 1.043c.245.245.337.952.337 2.593 0 1.893.06 2.255.37 2.255.455 0 1.044-.56 1.044-.992 0-.175.212-.47.471-.658.26-.186.472-.482.472-.658 0-.426.686-1.093.895-.87.09.099.033.226-.13.284-.167.06-.294.503-.294 1.028 0 .508-.106.923-.236.923s-.235.318-.235.707c0 .389-.106.707-.236.707s-.236.318-.236.707c0 .389-.106.707-.235.707-.13 0-.236.212-.236.471 0 .26-.106.471-.236.471s-.235.213-.235.472c0 .314.157.471.471.471.26 0 .471-.106.471-.235 0-.13.212-.236.472-.236.259 0 .47-.106.47-.236s.213-.236.472-.236c.26 0 .471.056.471.124 0 .069-.474.599-1.054 1.179l-1.054 1.054h-4.738l-1.054-1.054c-.99-.99-1.352-1.774-.818-1.774.13 0 .235.106.235.236s.319.236.707.236c.629 0 .707-.079.707-.707 0-.39-.106-.707-.236-.707s-.235-.318-.235-.707c0-.39-.106-.707-.236-.707s-.235-.212-.235-.472c0-.259-.106-.47-.236-.47s-.236-.319-.236-.708c0-.389-.106-.707-.235-.707a.236.236 0 01-.236-.235c0-.13.167-.236.37-.236.429 0 1.044.552 1.044.937 0 .341 1.078 1.42 1.42 1.42.513 0 .936-.685.936-1.515 0-.463.106-.842.236-.842s.236-.53.236-1.178c0-1.26.078-1.369.605-.842z" /></svg>