<svg width="18" height="18" viewBox="0 0 18 18" fill="none" xmlns="http://www.w3.org/2000/svg"><g clip-path="url(#clip0)"><path fill-rule="evenodd" clip-rule="evenodd" d="M15 14.25h-2.25v-4.203c0-2.526-3-2.335-3 0v4.203H7.5V6h2.25v1.323C10.797 5.383 15 5.241 15 9.181v5.069zM4.875 5.049a1.318 1.318 0 01-1.313-1.323c0-.73.589-1.323 1.313-1.323.726 0 1.313.592 1.313 1.323 0 .73-.587 1.323-1.313 1.323zm-1.125 9.2H6V6H3.75v8.25zM14.25 0H3.75A3.75 3.75 0 000 3.75v10.5A3.75 3.75 0 003.75 18h10.5A3.75 3.75 0 0018 14.25V3.75A3.75 3.75 0 0014.25 0z" fill="#000"/></g><defs><clipPath id="clip0"><path fill="#fff" d="M0 0h18v18H0z"/></clipPath></defs></svg>