<svg width="157" height="30" viewBox="0 0 157 30" fill="none" xmlns="http://www.w3.org/2000/svg"><g clip-path="url(#clip0)"><path d="M20.488 18.886L5.475.61H0v28.836h6.064V10.952l15.198 18.494h5.316V.61h-6.09v18.276zM126.545.61l-6.897 12.374-6.9-12.374h-6.863l10.691 18.66v10.176h6.144V19.27L133.409.61h-6.864zM97.82.61h-6.105v28.836h20.154v-6.018H97.82V.61zM77.844 13.286H69.16V6.65h8.392c.452.01.913.042 1.409.208 1.246.47 2.139 1.702 2.139 3.148 0 1.808-1.46 3.28-3.255 3.28zm5.166 4.4a9.384 9.384 0 004.157-7.792c0-4.77-3.602-8.708-8.217-9.224a15.53 15.53 0 00-1.294-.06H63.129v28.836h6.105V19.29h6.029l5.719 10.156h6.861L81.62 18.402c.841-.338 1.307-.656 1.39-.716zM55.874 3.524C53.824 1.466 51.217.258 48.407.072 47.28-.004 46.367 0 46.367 0v6.232s1.685.086 2.534.306c2.342.61 4.18 2.82 4.312 5.464.151 2.996.16 3.348.002 5.966-.16 2.66-2.002 4.898-4.332 5.496-.98.252-2.516.334-2.516.334V30s1.268-.018 2.04-.072c2.822-.194 5.41-1.4 7.455-3.466a12.593 12.593 0 003.628-8.11c.174-2.878.164-3.456.002-6.674a12.42 12.42 0 00-3.618-8.154zM41.294.072c-2.81.186-5.418 1.394-7.467 3.452a12.42 12.42 0 00-3.618 8.156c-.163 3.218-.172 3.796.002 6.674a12.602 12.602 0 003.627 8.11c2.046 2.066 4.634 3.272 7.456 3.466.77.054 2.04.072 2.04.072v-6.204s-1.537-.082-2.517-.334c-2.33-.598-4.169-2.836-4.33-5.496-.158-2.618-.148-2.97.002-5.966.133-2.644 1.973-4.854 4.312-5.464.85-.222 2.534-.306 2.534-.306V0c-.002 0-.914-.004-2.041.072zm107.372 12.254c-1.402-.312-3.065-.564-4.532-.786-1.036-.156-2.014-.304-2.54-.422-2.135-.48-2.123-1.856-2.119-2.464.014-1.516 1.738-2.42 3.443-2.552a11.861 11.861 0 012.153.006c2.232.14 3.53 1.306 3.901 2.194.117.28.173.45.173.45h5.951c.006-2.202-1.06-4.402-2.931-6.042-1.81-1.586-4.237-2.534-6.836-2.674a30.166 30.166 0 00-2.342-.02c-5.399.168-9.501 3.86-9.542 8.586-.036 4.184 2.583 7.378 6.836 8.332.734.164 1.764.32 2.956.5 1.372.206 2.925.442 4.126.71 2.935.654 2.921 2.258 2.917 2.784-.018 1.994-1.919 2.658-3.328 2.878-.482.096-1.212.188-2.242.182-1.07-.006-1.808-.066-2.314-.136-1.218-.13-2.318-.646-3.111-1.43-.492-.486-.748-.978-.929-1.698h-5.941c0 2.154.909 4.282 2.589 5.976 2.286 2.304 5.114 3.17 8.083 3.258.974.03 1.337.034 2.47.028 2.84-.02 5.187-.562 7.503-2.322 2.101-1.596 3.224-4.008 3.246-6.682.04-4.352-2.889-7.598-7.64-8.656" fill="#F7242E"/></g><defs><clipPath id="clip0"><path fill="#fff" d="M0 0h156.364v30H0z"/></clipPath></defs></svg>