<svg viewBox="0 0 45 40" xmlns="http://www.w3.org/2000/svg"><path fill-rule="evenodd" clip-rule="evenodd" d="M30.591.069c0 .038-.085.069-.19.069a.374.374 0 00-.29.138c-.102.142-.343.19-.343.069 0-.038-.061-.07-.137-.07-.075 0-.137-.03-.137-.068a.069.069 0 00-.069-.07c-.037 0-.068.094-.068.208 0 .16-.03.207-.137.207-.092 0-.137.046-.137.138 0 .075-.031.138-.07.138-.037 0-.068.124-.068.275 0 .23-.023.276-.137.276-.075 0-.137.031-.137.07 0 .037.03.068.069.068.099 0 .084.257-.018.305-.068.032-.068.048 0 .08.047.022.086.16.086.305s-.038.282-.086.304c-.068.032-.068.049 0 .08.103.049.12.72.017.72-.099 0-.084.256.018.304.068.032.068.048 0 .08-.102.048-.117.305-.018.305.038 0 .07.093.07.207 0 .113-.032.207-.07.207-.037 0-.068.062-.068.137 0 .076.03.138.069.138.037 0 .068.062.068.138 0 .076-.03.138-.069.138-.037 0-.068.062-.068.138 0 .076.03.138.069.138.037 0 .068.155.068.345 0 .19-.03.345-.069.345-.037 0-.068.062-.068.138 0 .075.03.138.069.138.037 0 .068.124.068.275 0 .219-.025.276-.122.276-.067 0-.166-.062-.22-.138-.055-.076-.155-.138-.222-.138s-.122-.048-.122-.106c0-.138-.305-.445-.443-.445-.058 0-.106-.031-.106-.07 0-.037-.047-.068-.106-.068-.058 0-.32-.217-.58-.483-.26-.265-.507-.483-.55-.483-.041 0-.226-.155-.41-.345-.184-.19-.37-.344-.412-.344-.044 0-.197-.124-.342-.276-.145-.152-.306-.276-.357-.276-.051 0-.138-.062-.192-.138-.054-.076-.154-.138-.221-.138s-.122-.049-.122-.108c0-.127-.161-.306-.275-.306-.043 0-.198-.124-.343-.275-.145-.152-.3-.276-.344-.276-.044 0-.167-.093-.273-.207-.105-.114-.227-.207-.27-.207-.115 0-.69-.601-.69-.722 0-.06-.06-.106-.137-.106-.076 0-.138-.03-.138-.069 0-.038-.061-.069-.137-.069-.091 0-.137-.046-.137-.137 0-.092-.046-.138-.137-.138-.075 0-.137-.031-.137-.07 0-.037-.093-.068-.206-.068-.113 0-.206-.031-.206-.07 0-.037-.081-.068-.18-.068a.488.488 0 01-.318-.155c-.093-.106-.148-.128-.168-.07-.017.048-.077.087-.133.087-.121 0-.298.164-.298.276 0 .136-.19.276-.373.276-.115 0-.176.037-.176.108 0 .06-.123.228-.274.374-.151.146-.275.3-.275.343 0 .115-.32.416-.443.416a.106.106 0 00-.106.105c0 .137-.582.722-.718.722a.106.106 0 00-.105.106c0 .174-.456.584-.65.584-.12 0-.173.037-.173.123 0 .067-.061.167-.137.222-.076.054-.137.154-.137.222 0 .077-.052.123-.137.123-.078 0-.138.046-.138.105 0 .137-.582.722-.718.722-.058 0-.105.031-.105.07 0 .037-.061.068-.137.068-.078 0-.137.046-.137.107 0 .06-.185.29-.412.514-.247.244-.411.464-.411.553 0 .172-.151.343-.304.343-.06 0-.108.031-.108.07 0 .037-.062.068-.137.068-.079 0-.137.046-.137.108 0 .126-.16.306-.273.306-.1 0-.413.315-.413.415 0 .113-.18.275-.304.275-.062 0-.108.058-.108.137 0 .092-.045.138-.137.138-.091 0-.137.046-.137.138 0 .076-.03.138-.069.138-.037 0-.068.055-.068.123 0 .067-.062.167-.137.222-.076.055-.138.148-.138.207s-.061.152-.137.207c-.075.054-.137.154-.137.222 0 .077-.051.123-.137.123-.077 0-.137.046-.137.105 0 .118-.712.86-.825.86-.111 0-.41.324-.41.445 0 .059-.03.107-.069.107-.037 0-.068.062-.068.138 0 .077-.046.138-.104.138-.116 0-.994.852-.994.964 0 .113-1.84 1.932-1.954 1.932-.07 0-.104.068-.104.207 0 .142-.033.207-.107.207-.139 0-.304.166-.304.305 0 .07-.062.108-.174.108-.193 0-.65.41-.65.584a.107.107 0 01-.107.106c-.139 0-.304.166-.304.305 0 .06-.03.109-.068.109-.038 0-.069.049-.069.108 0 .14-.165.306-.304.306-.062 0-.108.058-.108.138 0 .075-.03.137-.068.137-.038 0-.069.063-.069.138 0 .08-.045.138-.107.138-.06 0-.258.155-.441.345-.184.19-.37.345-.412.345-.102 0-.274.175-.274.278 0 .044-.093.167-.206.274-.113.106-.206.228-.206.272 0 .116-.32.417-.443.417a.108.108 0 00-.106.11c0 .061-.098.203-.218.316-.18.169-.201.218-.12.274.075.053.078.078.012.104-.047.02-.085.095-.085.167 0 .073-.031.133-.069.133-.038 0-.068.062-.068.138 0 .107-.046.137-.206.137-.113 0-.206.031-.206.07 0 .037.03.068.069.068.039 0 .068.207.068.483v.483h.275c.15 0 .274.03.274.069 0 .038.048.069.106.069.123 0 .443-.302.443-.418 0-.043.092-.166.205-.272.114-.106.206-.243.206-.303 0-.061.047-.11.105-.11.135 0 .856-.724.856-.861 0-.058.03-.105.068-.105.038 0 .069-.062.069-.138 0-.092.045-.138.137-.138.126 0 .137.046.137.552 0 .322-.028.552-.068.552-.04 0-.07.206-.07.482s-.028.483-.068.483c-.042 0-.068.322-.068.828 0 .505-.027.827-.069.827-.099 0-.084.257.017.305.069.032.069.048 0 .08-.101.048-.116.305-.017.305.038 0 .069.06.069.132 0 .073.038.15.085.172.07.032.07.049 0 .08-.047.023-.085.098-.085.167 0 .07.038.145.085.167.07.032.07.048 0 .08-.047.023-.085.1-.085.173 0 .072-.031.132-.069.132a.069.069 0 00-.068.069c0 .038.061.069.137.069.091 0 .137.046.137.138 0 .092-.046.138-.137.138-.092 0-.137.046-.137.138 0 .076.03.138.068.138.038 0 .069.062.069.138 0 .075.03.137.068.137.038 0 .069.125.069.276 0 .152-.03.276-.069.276-.037 0-.068.09-.068.201 0 .11-.039.22-.086.242-.069.032-.069.048 0 .08.104.049.12.856.017.856-.038 0-.068.125-.068.276 0 .152.03.276.068.276.1 0 .084.395-.017.443-.069.032-.069.048 0 .08.047.022.086.1.086.172 0 .073.03.133.068.133.038 0 .069.124.069.276 0 .151-.03.275-.069.275-.038 0-.068.184-.068.414 0 .23.03.414.068.414.038 0 .069.062.069.138 0 .076.03.138.069.138.038 0 .068.182.068.408 0 .264.03.419.086.439.058.02.036.075-.069.169-.193.172-.202.363-.017.363.092 0 .137.046.137.138 0 .076-.03.138-.068.138-.04 0-.069.207-.069.483 0 .275.03.482.069.482.1 0 .084.395-.017.443-.069.032-.069.048 0 .08.047.022.085.16.085.305s-.038.282-.085.304c-.069.032-.069.049 0 .08.101.049.116.305.017.305-.038 0-.069.156-.069.345 0 .19-.03.345-.068.345-.038 0-.07.093-.07.207 0 .114.032.207.07.207.037 0 .068.09.068.2 0 .111.039.218.086.237.065.026.06.054-.017.114-.078.06-.082.089-.017.115.101.041.117.575.017.575-.038 0-.069.093-.069.207 0 .114.031.207.069.207.037 0 .068.124.068.276 0 .23-.023.276-.137.276-.107 0-.137.045-.137.206 0 .114-.03.207-.069.207-.037 0-.068.11-.068.245 0 .252.242.583.427.583.05 0 .136.062.19.138.079.11.178.138.49.138.245 0 .405-.032.43-.087.032-.069.048-.069.08 0 .049.105.852.121.852.018 0-.039.183-.07.412-.07.228 0 .411.031.411.07 0 .038.093.069.206.069.113 0 .206-.031.206-.07 0-.037.092-.068.206-.068.113 0 .205.03.205.069 0 .038.062.069.138.069.075 0 .137-.031.137-.07 0-.038.183-.068.411-.068.229 0 .412.03.412.069 0 .038.092.069.206.069.113 0 .205-.031.205-.07 0-.037.031-.068.069-.068.038 0 .069.062.069.138 0 .12.045.138.343.138.188 0 .343-.031.343-.07 0-.037.123-.068.274-.068.15 0 .274.03.274.069 0 .038.155.069.343.069.189 0 .343-.031.343-.07 0-.1.53-.084.578.018.032.069.048.069.08 0 .048-.103.714-.12.714-.017 0 .038.124.069.274.069.151 0 .275-.031.275-.07 0-.042.387-.068 1.023-.068.756 0 1.031-.023 1.054-.087.02-.058.075-.036.168.07.137.155.499.217.499.086 0-.038.123-.07.274-.07.15 0 .274.032.274.07 0 .122.241.073.343-.07.126-.175.286-.175.412 0 .102.143.343.192.343.07 0-.039.183-.07.411-.07.23 0 .412-.03.412-.068 0-.038.154-.07.343-.07.189 0 .343.032.343.07 0 .038.123.069.274.069.151 0 .275-.031.275-.07 0-.037.061-.068.137-.068.075 0 .137.03.137.069 0 .044.732.069 2.058.069 1.326 0 2.058-.025 2.058-.07 0-.037.092-.068.206-.068.113 0 .205.03.205.069 0 .038.183.069.412.069.228 0 .411-.03.411-.07 0-.037.093-.068.206-.068.113 0 .206.03.206.069 0 .102.666.086.715-.017.032-.07.047-.07.08 0 .047.103.714.119.714.017 0-.044.595-.07 1.646-.07 1.052 0 1.646.026 1.646.07 0 .038.062.069.138.069.075 0 .137-.031.137-.07 0-.037.093-.068.206-.068.113 0 .206.03.206.069 0 .038.09.069.2.069.11 0 .218.038.24.086.032.069.048.069.08 0 .029-.063.296-.086.988-.086.695 0 .959-.023.984-.087.026-.065.054-.06.114.018.06.078.088.082.114.017.045-.112.413-.112.458 0 .026.065.053.06.109-.017.065-.092.082-.092.147 0 .056.078.083.082.109.017.02-.047.091-.086.16-.086.07 0 .144.038.166.086.032.069.048.069.08 0 .022-.047.097-.086.166-.086.07 0 .144-.04.166-.087.032-.068.048-.068.08 0 .047.103.303.117.303.018 0-.038.062-.07.137-.07.075 0 .137.032.137.07 0 .038.062.069.137.069.076 0 .138-.031.138-.07 0-.039.205-.068.48-.068.274 0 .48.03.48.069 0 .038.183.069.411.069.23 0 .412-.03.412-.07 0-.037.093-.068.206-.068.113 0 .206.03.206.069 0 .038.182.069.411.069.229 0 .412-.03.412-.07 0-.101.666-.085.714.018.032.069.048.069.08 0 .022-.047.13-.086.24-.086.155 0 .2-.032.2-.138 0-.092.046-.138.138-.138.075 0 .137-.031.137-.069a.069.069 0 00-.069-.069c-.102 0-.083-.202.03-.315a.347.347 0 01.205-.099c.062 0 .108-.058.108-.138 0-.076-.03-.138-.068-.138-.04 0-.069-.23-.069-.551 0-.322.029-.552.069-.552.037 0 .068-.093.068-.207 0-.114-.03-.207-.068-.207-.1 0-.085-.395.017-.442.068-.032.068-.049 0-.08-.051-.025-.086-.175-.086-.374 0-.2.035-.35.086-.374.068-.032.068-.048 0-.08-.055-.026-.086-.19-.086-.448 0-.227-.03-.408-.069-.408-.037 0-.068-.063-.068-.138 0-.092.045-.138.137-.138.124 0 .137-.046.137-.483 0-.276-.03-.483-.068-.483-.039 0-.069-.184-.069-.413 0-.23.03-.414.069-.414.1 0 .084-.533-.018-.58-.068-.033-.068-.049 0-.081.048-.022.086-.13.086-.242 0-.11.031-.2.069-.2.038 0 .068-.185.068-.415 0-.23-.03-.413-.068-.413-.04 0-.069-.23-.069-.552 0-.322.029-.552.069-.552.104 0 .088-.946-.017-.989-.065-.026-.061-.054.017-.114.078-.06.082-.088.017-.114-.102-.042-.117-.3-.017-.3.039 0 .068-.207.068-.482 0-.276-.03-.483-.068-.483-.038 0-.069-.062-.069-.138 0-.076.031-.138.069-.138.038 0 .068-.093.068-.207 0-.114-.03-.207-.068-.207-.04 0-.069-.207-.069-.483 0-.275.03-.482.069-.482.038 0 .068-.184.068-.414 0-.23-.03-.414-.068-.414-.04 0-.069-.253-.069-.62 0-.368-.028-.621-.068-.621-.038 0-.069-.093-.069-.207 0-.114.03-.207.069-.207.037 0 .068-.06.068-.132 0-.073.039-.15.086-.172.069-.033.069-.049 0-.08-.052-.025-.086-.176-.086-.38 0-.187-.03-.34-.068-.34-.039 0-.069-.183-.069-.413 0-.397.007-.414.175-.414.192 0 .51.278.51.445 0 .059.032.107.07.107.037 0 .068.062.068.138 0 .092.046.138.137.138.076 0 .137.03.137.069 0 .038.048.069.106.069.138 0 .443.307.443.445 0 .078.073.106.275.106.15 0 .274-.03.274-.069 0-.038.154-.069.343-.069.333 0 .343-.005.343-.2 0-.111-.039-.22-.086-.242-.068-.032-.068-.048 0-.08.13-.062.103-.262-.051-.374-.076-.055-.138-.14-.138-.191 0-.05-.216-.306-.48-.568-.264-.262-.48-.524-.48-.582a.107.107 0 00-.106-.107c-.06 0-.289-.186-.511-.414-.222-.228-.452-.414-.51-.414-.062 0-.108-.059-.108-.138 0-.076-.03-.138-.068-.138-.038 0-.069-.048-.069-.108 0-.133-.163-.305-.288-.305-.051 0-.137-.063-.192-.138-.054-.076-.154-.138-.22-.138-.068 0-.123-.048-.123-.107 0-.123-.3-.445-.413-.445-.143 0-.273-.196-.273-.412 0-.232-.257-.553-.443-.553a.107.107 0 01-.105-.107c0-.138-.306-.445-.443-.445-.06 0-.106-.06-.106-.138 0-.08-.046-.138-.108-.138-.06 0-.227-.124-.372-.276-.145-.152-.3-.276-.343-.276-.114 0-.275-.178-.275-.305 0-.074-.064-.108-.206-.108-.113 0-.205-.032-.205-.07 0-.037-.062-.068-.138-.068-.09 0-.137-.046-.137-.138 0-.102-.045-.138-.174-.138-.225 0-.512-.288-.512-.514 0-.13-.035-.176-.137-.176-.091 0-.137-.046-.137-.138 0-.092-.046-.138-.137-.138-.106 0-.137-.046-.137-.2 0-.111-.039-.218-.086-.237-.065-.026-.06-.054.017-.114.078-.06.082-.088.017-.115-.103-.042-.119-.713-.017-.713.038 0 .069-.062.069-.138 0-.076-.031-.138-.069-.138-.106 0-.09-1.358.017-1.408.069-.032.069-.048 0-.08-.102-.048-.116-.305-.017-.305.042 0 .069-.345.069-.896 0-.552-.027-.897-.069-.897-.038 0-.069-.124-.069-.276 0-.151.031-.275.07-.275.037 0 .068-.062.068-.138 0-.076-.031-.138-.069-.138-.038 0-.069-.062-.069-.138 0-.076.031-.138.07-.138.037 0 .068-.062.068-.138 0-.076-.031-.138-.069-.138-.1 0-.084-.258.017-.3.065-.026.06-.054-.017-.114-.078-.06-.082-.088-.017-.114.06-.025.086-.235.086-.713 0-.475-.026-.69-.086-.719-.069-.032-.069-.048 0-.08.107-.05.124-1.546.017-1.546-.041 0-.069-.299-.069-.759s-.027-.758-.068-.758c-.038 0-.069-.155-.069-.345 0-.19.031-.345.069-.345.038 0 .069-.11.069-.243 0-.186-.057-.3-.238-.483-.131-.132-.285-.24-.343-.24-.058 0-.106-.03-.106-.068 0-.038-.061-.07-.137-.07-.075 0-.137-.03-.137-.068 0-.04-.229-.069-.549-.069-.32 0-.548.029-.548.069 0 .038-.062.069-.138.069-.075 0-.137-.031-.137-.069 0-.044-.503-.069-1.372-.069-.869 0-1.372.025-1.372.069zm-.411 1.38c0 .037.062.068.137.068.076 0 .137-.03.137-.069 0-.1.393-.085.44.017.033.07.049.07.08 0 .023-.047.097-.086.166-.086.07 0 .144.04.166.086.032.07.048.07.08 0 .049-.105.989-.121.989-.017 0 .038.062.07.137.07.076 0 .137-.032.137-.07 0-.038.031-.069.069-.069.038 0 .068.062.068.138 0 .153.104.186.166.052.032-.07.048-.07.08 0 .048.102.578.118.578.017 0-.038.061-.069.137-.069.075 0 .137.031.137.07 0 .037.093.068.206.068.181 0 .206.024.206.201 0 .11.038.22.085.242.069.032.069.048 0 .08-.058.027-.085.217-.085.586 0 .318-.03.546-.069.546-.038 0-.069.062-.069.138 0 .076.031.138.069.138.1 0 .084.533-.017.58-.069.033-.069.049 0 .08.054.026.086.19.086.45 0 .37.08.536.156.32.018-.05.056-.06.091-.024.036.035.025.074-.024.092-.048.017-.086.09-.086.163 0 .073-.031.132-.069.132-.042 0-.068.322-.068.828 0 .505.026.827.068.827.043 0 .069.368.069.966 0 .919-.007.965-.137.965-.092 0-.138.046-.138.138 0 .076.031.138.069.138.04 0 .069.23.069.552 0 .321.028.551.068.551.04 0 .069.23.069.552 0 .322-.029.552-.069.552-.037 0-.068.155-.068.344 0 .19-.031.345-.069.345-.038 0-.069-.047-.069-.106 0-.137-.444-.583-.58-.583a.105.105 0 01-.106-.105c0-.137-.72-.86-.855-.86a.107.107 0 01-.105-.11c0-.153-.17-.305-.342-.305-.086 0-.286-.143-.481-.344-.184-.19-.382-.345-.441-.345-.06 0-.108-.031-.108-.07 0-.037-.062-.068-.137-.068-.091 0-.137-.046-.137-.138 0-.076-.031-.138-.069-.138-.037 0-.068-.055-.068-.123 0-.067-.062-.167-.137-.222-.128-.092-.138-.178-.138-1.256 0-.726-.025-1.157-.068-1.157-.121 0-.073-.243.068-.345.142-.103.19-.345.069-.345-.038 0-.069-.093-.069-.207 0-.114.031-.207.069-.207.038 0 .069-.062.069-.138 0-.076-.031-.138-.07-.138-.037 0-.068-.155-.068-.345 0-.19-.03-.344-.068-.344-.038 0-.069-.184-.069-.414 0-.23-.03-.414-.068-.414-.042 0-.069-.276-.069-.69 0-.413-.027-.69-.069-.69-.037 0-.068-.123-.068-.275 0-.152.03-.276.068-.276.038 0 .069.031.069.07zm-9.672.482c.055.076.154.138.221.138.076 0 .122.051.122.138 0 .086.046.138.122.138.067 0 .167.062.221.138.055.075.14.138.19.138.124 0 .565.454.565.583 0 .059.048.106.107.106.06 0 .258.155.441.345.184.19.37.345.413.345.113 0 .273.18.273.305 0 .073.063.109.191.109.112 0 .231.056.29.137.054.076.141.138.193.138.052 0 .181.093.287.207.105.114.258.207.338.207.167 0 .76.563.76.722 0 .058.047.106.107.106.059 0 .257.155.441.344.184.19.376.345.426.345.051 0 .137.062.191.138.055.076.14.138.192.138.148 0 .288.182.288.375 0 .115.038.177.109.177.06 0 .227.124.372.276.145.151.312.276.372.276s.108.03.108.068c0 .038.062.07.137.07.079 0 .137.045.137.108 0 .125.16.305.272.305.114 0 .551.463.551.584 0 .058.048.106.107.106s.288.186.51.414c.223.227.44.413.482.413.1 0 .273.175.273.276 0 .102.173.276.274.276.114 0 .275.18.275.306 0 .06.03.108.069.108.037 0 .068.049.068.108 0 .127.161.306.275.306.043 0 .197.124.342.275.25.26.48.36.48.207 0-.038.032-.069.07-.069.037 0 .068.087.068.192 0 .112.056.233.137.291.075.055.137.155.137.222 0 .068.031.123.069.123.037 0 .068.062.068.138 0 .078.046.138.105.138.12 0 .581.44.581.554 0 .124.185.273.34.273.191 0 1.17.984 1.17 1.176 0 .156.148.341.272.341.114 0 .413.323.413.446 0 .06.06.106.137.106.076 0 .138.031.138.07 0 .037.092.068.205.068.14 0 .206.034.206.105 0 .12.575.723.69.723.11 0 .27.18.27.305 0 .062.059.108.138.108.091 0 .137.046.137.138 0 .092.046.138.137.138.091 0 .137.046.137.138 0 .076.031.138.069.138.038 0 .069.062.069.138 0 .086.045.138.121.138.068 0 .167.062.221.138.055.076.14.138.189.138.108 0 .84.724.84.831 0 .042.124.195.275.341.255.247.274.291.274.65 0 .211.031.384.069.384.037 0 .068.063.068.138 0 .076-.03.138-.068.138-.038 0-.069.09-.069.201 0 .111-.038.22-.086.242-.068.032-.068.048 0 .08.102.048.117.58.017.58-.037 0-.068.094-.068.208 0 .113.03.206.069.206.037 0 .068.063.068.138 0 .076-.03.138-.069.138-.043 0-.068.504-.068 1.374 0 1.031-.021 1.383-.086 1.414-.068.032-.068.048 0 .08.102.048.116.305.017.305-.037 0-.068.062-.068.137 0 .076.03.138.068.138.038 0 .069.125.069.276 0 .152-.031.276-.069.276-.037 0-.068.093-.068.207 0 .114.03.207.068.207.1 0 .085.257-.017.304-.068.033-.068.049 0 .08.111.053.111.42 0 .472-.068.032-.068.048 0 .08.106.05.122 1.133.017 1.133-.037 0-.068.124-.068.276 0 .151.03.275.068.275.038 0 .069.094.069.207 0 .114-.031.207-.069.207-.041 0-.068.299-.068.759s-.027.758-.069.758c-.038 0-.069.184-.069.414 0 .23.031.414.07.414.037 0 .068.184.068.414 0 .23.03.413.068.413.038 0 .069.031.069.07 0 .037-.062.068-.137.068-.092 0-.138.046-.138.138 0 .076.031.138.07.138.037 0 .068.155.068.345 0 .19-.031.345-.069.345-.038 0-.069.184-.069.413 0 .23.031.414.07.414.1 0 .083.533-.018.58-.069.033-.069.049 0 .081.104.049.12.856.017.856-.038 0-.069.094-.069.207 0 .114.031.207.07.207.037 0 .068.184.068.414 0 .23.03.414.068.414.038 0 .069.093.069.207 0 .195-.015.206-.275.206-.15 0-.274-.03-.274-.068 0-.038-.062-.07-.137-.07-.075 0-.137.032-.137.07 0 .042-.318.069-.818.069-.587 0-.828.024-.857.086-.032.069-.048.069-.08 0-.022-.048-.1-.087-.171-.087-.073 0-.132-.03-.132-.068 0-.038-.06-.07-.132-.07-.072 0-.149-.038-.171-.086-.032-.069-.048-.069-.08 0-.022.048-.16.087-.309.087-.148 0-.268.03-.268.069 0 .041-.298.069-.755.069s-.754.027-.754.068c0 .038-.124.07-.275.07-.15 0-.274-.032-.274-.07 0-.037-.093-.069-.206-.069-.113 0-.206.032-.206.07 0 .103-.804.087-.846-.018-.026-.065-.054-.06-.114.017-.06.079-.088.083-.114.018-.041-.102-.435-.118-.435-.018 0 .038-.061.07-.137.07-.075 0-.137-.032-.137-.07 0-.124-.221-.072-.361.087-.094.105-.148.127-.169.069-.036-.102-.293-.117-.293-.018 0 .038-.093.07-.206.07-.113 0-.206-.032-.206-.07 0-.042-.32-.069-.823-.069-.503 0-.823-.026-.823-.069 0-.037-.121-.069-.269-.069-.15 0-.284-.037-.303-.086-.026-.065-.054-.06-.114.018-.06.078-.088.082-.114.017-.041-.102-.298-.117-.298-.017s-.392.084-.44-.018c-.032-.069-.048-.069-.08 0-.022.048-.096.087-.166.087-.069 0-.143-.04-.165-.087-.032-.069-.048-.069-.08 0-.022.048-.13.087-.24.087-.155 0-.2.031-.2.137 0 .076-.031.138-.07.138a.07.07 0 01-.068-.069c0-.038-.092-.069-.206-.069-.113 0-.205-.03-.205-.069 0-.124-.222-.072-.361.087-.094.105-.148.127-.169.069-.022-.064-.284-.087-.985-.087-.59 0-.955-.026-.955-.069 0-.037-.154-.069-.343-.069-.188 0-.343.032-.343.07 0 .103-.803.087-.851-.018-.032-.069-.048-.069-.08 0-.022.048-.097.086-.166.086-.07 0-.144-.038-.166-.086-.032-.069-.048-.069-.08 0-.047.102-.44.118-.44.017 0-.039-.206-.069-.48-.069-.435 0-.48.014-.48.138 0 .076-.031.138-.069.138a.07.07 0 01-.069-.069c0-.038-.09-.069-.2-.069-.11 0-.218-.038-.24-.086-.032-.069-.048-.069-.08 0-.055.12-1.1.12-1.15 0-.025-.065-.052-.06-.108.017-.065.092-.082.092-.147 0-.056-.077-.083-.082-.109-.017-.043.107-1.12.123-1.12.017 0-.037-.063-.069-.138-.069-.076 0-.137.032-.137.07 0 .037-.062.068-.137.068-.076 0-.138-.03-.138-.069 0-.04-.274-.069-.686-.069-.411 0-.685.028-.685.07 0 .041-.298.068-.755.068s-.755-.027-.755-.069c0-.037-.092-.069-.205-.069-.114 0-.206.032-.206.07 0 .037-.123.068-.274.068-.151 0-.275-.03-.275-.069 0-.038-.183-.069-.411-.069-.229 0-.412.031-.412.07 0 .038-.183.068-.412.068-.228 0-.411-.03-.411-.069 0-.041-.295-.069-.749-.069-.532 0-.76-.024-.789-.086-.032-.069-.048-.069-.08 0-.022.048-.127.087-.234.087-.107 0-.212.038-.234.086-.032.069-.049.069-.08 0-.025-.052-.175-.087-.378-.087-.185 0-.337-.03-.337-.068 0-.038-.123-.07-.274-.07-.151 0-.275.032-.275.07 0 .038-.061.069-.137.069-.075 0-.137.03-.137.068 0 .1-.393.085-.44-.017-.032-.069-.048-.069-.08 0-.022.048-.13.086-.24.086-.11 0-.2.032-.2.07 0 .037-.062.068-.138.068-.114 0-.137-.046-.137-.276 0-.151.031-.275.069-.275.038 0 .068-.062.068-.138 0-.076-.03-.138-.068-.138-.038 0-.069-.093-.069-.207 0-.114.031-.207.069-.207.099 0 .084-.258-.017-.3-.065-.026-.061-.054.017-.114.077-.06.082-.088.017-.114-.111-.045-.111-.276 0-.328.069-.032.069-.049 0-.08-.102-.048-.116-.305-.017-.305.038 0 .068-.062.068-.138 0-.076-.03-.138-.068-.138-.044 0-.069-.69-.069-1.931s-.024-1.93-.068-1.93c-.038 0-.069-.094-.069-.208 0-.114.03-.207.069-.207.037 0 .068-.093.068-.207 0-.113-.03-.206-.068-.206-.038 0-.069-.063-.069-.138 0-.076.03-.138.069-.138.037 0 .068-.062.068-.138 0-.076-.03-.138-.068-.138-.1 0-.085-.395.017-.443.068-.032.068-.048 0-.08-.105-.05-.121-.994-.017-.994.037 0 .068-.093.068-.207 0-.114-.03-.207-.068-.207-.1 0-.085-.395.017-.443.068-.032.068-.048 0-.08-.102-.048-.117-.442-.017-.442.037 0 .068-.149.068-.33 0-.25-.033-.354-.137-.43-.096-.068-.137-.178-.137-.36 0-.143.03-.26.068-.26.039 0 .069-.184.069-.413 0-.23-.03-.414-.069-.414-.037 0-.068-.093-.068-.207 0-.114.03-.207.068-.207.038 0 .069-.124.069-.276 0-.152-.03-.276-.069-.276-.037 0-.068-.121-.068-.27 0-.149-.039-.288-.086-.31-.069-.032-.069-.048 0-.08.047-.023.086-.131.086-.242 0-.11.03-.201.068-.201.038 0 .069-.062.069-.138 0-.076-.03-.138-.069-.138-.037 0-.068-.062-.068-.138 0-.076.03-.138.068-.138.038 0 .069-.062.069-.138 0-.076-.03-.138-.069-.138-.037 0-.068-.124-.068-.276 0-.151.03-.275.068-.275.042 0 .069-.276.069-.69 0-.414-.027-.69-.069-.69-.037 0-.068-.093-.068-.206 0-.114.03-.207.068-.207.044 0 .069-.46.069-1.242 0-.781.025-1.241.069-1.241.037 0 .068-.062.068-.138 0-.092.046-.138.137-.138.076 0 .138-.03.138-.069 0-.038.061-.069.137-.069.102 0 .137-.046.137-.179 0-.11.08-.254.206-.372.113-.107.205-.23.205-.274 0-.116.178-.278.304-.278.06 0 .108-.049.108-.108 0-.127.161-.306.274-.306.1 0 .275-.174.275-.273 0-.1.453-.554.553-.554.043 0 .164-.094.27-.207.106-.114.242-.207.302-.207s.11-.055.11-.123c0-.067.061-.167.137-.222.075-.055.137-.14.137-.189 0-.117.862-.983.978-.983.049 0 .134-.062.188-.138.054-.076.154-.138.22-.138.068 0 .123-.05.123-.11 0-.061.092-.198.206-.304.126-.119.205-.262.205-.372 0-.134.036-.18.138-.18.091 0 .137-.046.137-.138 0-.077.046-.138.104-.138.126 0 1.405-1.272 1.405-1.397 0-.05.062-.134.137-.189.076-.054.137-.147.137-.206 0-.06.062-.153.137-.207.076-.055.138-.155.138-.222 0-.068.047-.123.105-.123.136 0 .58-.447.58-.584 0-.058.05-.106.108-.106.133 0 .304-.164.304-.29 0-.051.062-.138.137-.193.076-.054.138-.154.138-.222 0-.067.048-.122.107-.122.125 0 .304-.162.304-.274 0-.115.32-.416.443-.416.06 0 .106-.06.106-.138 0-.092.046-.138.137-.138.08 0 .137-.046.137-.108 0-.126.16-.306.273-.306.098 0 .413-.315.413-.413 0-.113.322-.414.443-.414.06 0 .106-.06.106-.138 0-.08.046-.138.108-.138.124 0 .304-.161.304-.272 0-.116.737-.831.855-.831.06 0 .105-.06.105-.138 0-.078.046-.138.104-.138.137 0 .719-.586.719-.722 0-.071.067-.106.206-.106.14 0 .205-.034.205-.108 0-.059.155-.259.343-.443.236-.231.343-.392.343-.513 0-.212.072-.226.206-.04zm-1.166 13.861c0 .038-.09.07-.2.07-.11 0-.216.038-.235.085-.026.065-.054.061-.114-.017-.06-.078-.087-.082-.113-.017-.02.047-.094.086-.167.086-.072 0-.131.031-.131.069 0 .038-.124.069-.275.069-.15 0-.274.031-.274.069 0 .038-.092.069-.206.069-.113 0-.205.03-.205.069 0 .038-.124.069-.275.069-.15 0-.274.03-.274.069 0 .038-.093.069-.206.069-.113 0-.206.03-.206.069 0 .1-.255.085-.303-.018-.032-.069-.048-.069-.08 0-.022.048-.13.087-.24.087-.11 0-.2.03-.2.069 0 .038-.092.069-.206.069-.113 0-.206.03-.206.068 0 .038-.092.07-.205.07-.114 0-.206.03-.206.069 0 .037-.093.068-.206.068-.16 0-.206.031-.206.138 0 .092-.045.138-.137.138-.075 0-.137.031-.137.07 0 .037-.062.068-.137.068-.076 0-.137.031-.137.07 0 .037-.111.068-.247.068-.19 0-.296.052-.457.224-.132.142-.22.193-.239.138-.046-.136-.155-.1-.155.052 0 .092-.046.138-.137.138-.091 0-.137.046-.137.138 0 .112-.046.138-.246.138-.196 0-.297.055-.509.276-.145.151-.312.275-.372.275-.062 0-.108.059-.108.138 0 .102-.046.138-.176.138-.12 0-.28.108-.51.345-.184.19-.37.345-.412.345-.1 0-.274.174-.274.276 0 .043-.049.128-.109.188-.091.092-.119.094-.168.014-.032-.052-.083-.068-.114-.036-.03.033-.016.073.031.09.102.037.117.295.017.295-.038 0-.068.125-.068.276 0 .152.03.276.068.276.038 0 .069.062.069.138 0 .076-.031.138-.069.138-.102 0-.083.202.03.315.063.064.245.099.517.099h.42l.474-.483c.26-.266.514-.483.564-.483.05 0 .136-.062.19-.138.055-.076.154-.138.221-.138.076 0 .122-.051.122-.138 0-.107.046-.137.206-.137.113 0 .206-.031.206-.07 0-.037.05-.068.11-.068s.196-.093.301-.207c.106-.114.242-.207.302-.207s.11-.031.11-.07c0-.037.062-.068.137-.068.075 0 .137-.031.137-.07 0-.037.062-.068.137-.068.076 0 .138-.031.138-.069 0-.038.049-.069.11-.069.06 0 .196-.093.301-.207.14-.15.255-.207.424-.207.153 0 .265-.047.33-.138.055-.076.155-.138.222-.138s.122-.03.122-.069c0-.038.11-.069.247-.069.185 0 .294-.05.439-.206.105-.114.241-.207.302-.207.06 0 .11-.031.11-.07 0-.037.12-.068.268-.068.15 0 .284-.038.303-.086.026-.066.054-.061.114.017.06.078.088.082.114.017.02-.047.094-.086.166-.086.073 0 .132-.031.132-.07 0-.037.12-.068.268-.068.148 0 .287-.039.309-.086.032-.07.048-.07.08 0 .024.05.172.086.362.086.244 0 .346-.034.421-.138.08-.11.178-.138.49-.138.245 0 .405-.032.43-.086.032-.07.049-.07.08 0 .024.051.174.086.372.086s.348-.035.372-.086c.032-.07.048-.07.08 0 .048.103.714.12.714.017 0-.038.062-.069.137-.069.076 0 .137.031.137.07 0 .101.667.085.715-.018.032-.07.048-.07.08 0 .05.106 1.126.123 1.126.017 0-.038.062-.069.137-.069.076 0 .137.031.137.07 0 .037.062.068.138.068.075 0 .137.031.137.07 0 .037.123.068.274.068.151 0 .275.031.275.069 0 .038.092.069.205.069.114 0 .206.031.206.069 0 .038.093.069.206.069.113 0 .206.03.206.069 0 .1.257.085.294-.017.02-.059.075-.037.168.069a.488.488 0 00.318.155c.099 0 .18.03.18.069 0 .038.055.069.122.069s.167.062.221.138a.378.378 0 00.274.137c.097 0 .22.062.275.138.054.076.154.138.22.138.068 0 .123.031.123.07 0 .037.062.068.137.068.075 0 .137.031.137.07 0 .037.08.068.177.068.117 0 .267.094.44.276.145.152.313.276.372.276.075 0 .109.064.109.207 0 .113.03.207.068.207a.069.069 0 00.069-.07c0-.127.378-.072.48.07.054.076.147.138.206.138s.151.062.206.137c.054.076.14.138.191.138.113 0 .289.168.289.276 0 .136.189.276.372.276.13 0 .177.036.177.138 0 .076.03.138.068.138.038 0 .069.049.069.108 0 .161.173.306.366.306.094 0 .189.038.211.086.032.069.048.069.08 0 .047-.102.577-.118.577-.017 0 .104.34.082.451-.03.056-.056.098-.232.098-.414 0-.304.007-.315.206-.315.113 0 .206-.016.206-.036 0-.087-.9-.93-.994-.93a.105.105 0 01-.104-.105c0-.12-.437-.584-.55-.584-.041 0-.257-.186-.479-.414-.222-.227-.452-.413-.51-.413-.061 0-.107-.06-.107-.138 0-.092-.046-.138-.137-.138-.092 0-.137-.046-.137-.138 0-.103-.046-.138-.179-.138-.11 0-.252-.08-.37-.207-.145-.156-.253-.207-.44-.207-.135 0-.246-.031-.246-.069 0-.038-.173-.069-.384-.069-.338 0-.407-.025-.576-.207-.11-.117-.263-.207-.356-.207a.365.365 0 01-.262-.138.374.374 0 00-.29-.137c-.104 0-.19-.032-.19-.07 0-.037-.062-.068-.137-.068-.076 0-.137-.032-.137-.07 0-.037-.124-.068-.275-.068-.15 0-.274-.031-.274-.07 0-.037-.09-.068-.2-.068-.11 0-.216-.039-.235-.086-.026-.066-.052-.062-.105.015-.06.085-.09.078-.202-.052-.107-.124-.204-.153-.518-.153-.213 0-.386-.031-.386-.07 0-.037-.155-.068-.343-.068-.189 0-.343-.031-.343-.069 0-.04-.252-.069-.618-.069s-.617-.028-.617-.069c0-.038-.154-.069-.343-.069-.189 0-.343-.03-.343-.069 0-.1-.255-.085-.303.017-.032.07-.048.07-.08 0-.025-.054-.187-.086-.44-.086s-.415.032-.44.086c-.032.07-.048.07-.08 0-.05-.107-1.538-.124-1.538-.017zm1.098 5.241c0 .04-.206.07-.48.07-.275 0-.48.029-.48.068 0 .038-.124.07-.275.07-.151 0-.274.03-.274.068 0 .038-.117.069-.26.069-.18 0-.289.042-.358.138-.054.076-.154.138-.22.138-.068 0-.123.03-.123.069 0 .038-.178.069-.396.069-.318 0-.416.027-.496.138-.068.096-.177.138-.358.138-.142 0-.259.03-.259.069 0 .037-.061.069-.137.069-.076 0-.137.03-.137.069 0 .038-.055.069-.122.069s-.167.061-.221.137a.374.374 0 01-.29.138c-.104 0-.19.031-.19.07 0 .037-.055.068-.122.068-.068 0-.167.062-.221.138-.055.076-.14.138-.19.138-.111 0-.428.309-.428.418 0 .043-.092.165-.205.272-.114.106-.206.243-.206.303a.11.11 0 01-.108.11c-.132 0-.304.164-.304.29 0 .052-.062.139-.137.193-.104.076-.137.179-.137.43 0 .18.03.329.069.329.037 0 .068.05.068.11s.093.197.206.304c.113.106.206.242.206.303 0 .172.324.135.517-.059.093-.093.169-.204.169-.246 0-.1.173-.274.274-.274.113 0 .274-.18.274-.306 0-.062.059-.108.137-.108.076 0 .138-.031.138-.069 0-.038.049-.069.11-.069.06 0 .195-.093.301-.207.106-.114.242-.207.302-.207s.11-.03.11-.069c0-.038.055-.069.122-.069s.166-.062.22-.138c.055-.076.142-.137.194-.137.052 0 .181-.094.287-.207.154-.167.249-.207.48-.207.235 0 .325-.04.492-.22.168-.18.217-.202.273-.12.052.075.077.078.103.012.02-.047.125-.086.235-.086.11 0 .2-.031.2-.069 0-.038.124-.069.275-.069.15 0 .274-.031.274-.069 0-.038.062-.069.137-.069.076 0 .137-.03.137-.069 0-.038.155-.069.343-.069.19 0 .343-.03.343-.069 0-.1.394-.085.435.017.027.066.055.061.114-.017.06-.078.088-.082.114-.017.02.048.152.086.298.086.144 0 .28-.039.303-.086.032-.069.048-.069.08 0 .024.052.174.086.377.086.186 0 .337.031.337.07 0 .037.155.068.343.068.297 0 .343.018.343.138 0 .115.046.138.275.138.15 0 .274.031.274.069 0 .038.062.069.137.069.076 0 .137.03.137.069 0 .038.062.069.137.069.076 0 .138.03.138.069 0 .038.154.069.343.069.188 0 .343.03.343.069 0 .038.061.069.137.069.075 0 .137.03.137.069 0 .038.08.069.178.069.112 0 .255.081.383.22.162.174.216.199.263.122.049-.079.084-.068.192.056.072.084.175.153.229.153.053 0 .141.062.195.138.07.096.178.138.359.138.142 0 .259.031.259.07 0 .037.062.068.137.068.079 0 .137.046.137.108 0 .128.161.306.276.306.045 0 .167.093.273.207.106.113.26.207.341.207.2 0 .345.157.345.374 0 .174.01.177.48.177.274 0 .48-.03.48-.069 0-.038.062-.069.137-.069.114 0 .138-.046.138-.27 0-.148.038-.288.085-.31.069-.032.069-.048 0-.08a.17.17 0 01-.085-.143c0-.135-.168-.3-.304-.3-.062 0-.108-.058-.108-.138 0-.076-.03-.138-.069-.138-.037 0-.068-.062-.068-.138 0-.078-.046-.138-.106-.138-.122 0-.443-.3-.443-.415 0-.15-.2-.274-.44-.274-.2 0-.246-.026-.246-.138 0-.076-.03-.138-.069-.138-.037 0-.068-.062-.068-.138 0-.105-.046-.138-.19-.138a.374.374 0 01-.29-.138c-.055-.076-.154-.138-.221-.138s-.122-.03-.122-.069c0-.038-.055-.069-.122-.069s-.167-.062-.221-.138a.374.374 0 00-.29-.138c-.105 0-.19-.03-.19-.069 0-.038-.062-.069-.137-.069-.076 0-.138-.03-.138-.069 0-.037-.085-.069-.19-.069a.374.374 0 01-.29-.137c-.069-.096-.177-.138-.358-.138-.142 0-.26-.031-.26-.07 0-.037-.092-.068-.205-.068-.113 0-.206-.031-.206-.07 0-.037-.061-.068-.137-.068-.075 0-.137-.031-.137-.07 0-.037-.093-.068-.206-.068-.113 0-.206-.031-.206-.07 0-.037-.123-.068-.274-.068-.151 0-.274-.031-.274-.069 0-.038-.124-.069-.275-.069-.15 0-.274-.031-.274-.069 0-.038-.093-.069-.206-.069-.113 0-.206-.03-.206-.069 0-.041-.272-.069-.68-.069-.477 0-.692-.026-.72-.086-.032-.069-.048-.069-.08 0-.048.102-.303.117-.303.017a.069.069 0 00-.069-.069.069.069 0 00-.068.07zm-2.058 5.93c0 .039-.062.07-.137.07-.076 0-.138.03-.138.069 0 .038-.154.069-.342.069-.27 0-.343.024-.343.11 0 .06-.093.197-.206.303-.114.107-.206.243-.206.304 0 .06-.03.11-.069.11-.037 0-.068.056-.068.123 0 .068-.062.167-.137.222-.076.055-.138.152-.138.216 0 .065-.038.133-.085.152-.065.027-.06.055.017.115.078.06.082.088.017.114-.048.02-.086.153-.086.3 0 .145.039.282.086.304.069.032.069.049 0 .08-.102.048-.116.305-.017.305.037 0 .068.093.068.207 0 .114.031.207.069.207.038 0 .069.093.069.207 0 .16.03.207.137.207.091 0 .137.046.137.138 0 .076.03.138.068.138.038 0 .07.062.07.137 0 .076.03.138.068.138.037 0 .068.05.068.11 0 .061.093.198.206.304.113.106.206.243.206.304 0 .06.03.11.069.11.037 0 .068.062.068.138 0 .078.046.138.106.138.137 0 .443.307.443.445 0 .06.059.107.137.107.078 0 .137.046.137.106 0 .058.278.383.617.721.34.339.618.65.618.692 0 .1.174.274.276.274.044 0 .167.093.273.206.105.114.241.207.301.207s.11.031.11.07c0 .037.121.068.269.068.153 0 .281.037.298.086.018.055.106.004.239-.137.115-.124.246-.225.29-.225.045 0 .2-.124.345-.275.145-.152.299-.276.342-.276.043 0 .228-.156.412-.345.184-.19.368-.345.408-.345.098 0 1.238-1.148 1.238-1.246 0-.041.124-.194.275-.34.15-.146.274-.307.274-.359 0-.051.062-.138.137-.193a.378.378 0 00.138-.29c0-.106.03-.192.068-.192.038 0 .069-.063.069-.138 0-.076.03-.138.068-.138.038 0 .069-.055.069-.123 0-.067.062-.167.137-.222.125-.09.137-.179.137-.966 0-.787-.012-.875-.137-.965a.378.378 0 01-.137-.291c0-.105-.03-.192-.069-.192-.037 0-.068-.062-.068-.138 0-.076-.031-.138-.069-.138-.038 0-.068-.062-.068-.137 0-.108-.046-.139-.206-.139-.113 0-.206-.03-.206-.068 0-.038-.05-.07-.11-.07s-.196-.093-.302-.206c-.105-.114-.241-.207-.301-.207s-.11-.031-.11-.07c0-.099-.256-.084-.303.018-.032.07-.048.07-.08 0-.047-.102-.303-.117-.303-.017 0 .038-.121.069-.269.069-.15 0-.284.038-.303.086-.026.065-.054.061-.114-.017-.06-.078-.088-.082-.114-.017-.019.047-.094.086-.166.086-.086 0-.132.048-.132.138 0 .092-.045.138-.137.138-.075 0-.137.03-.137.069 0 .038-.062.069-.137.069-.076 0-.137.03-.137.069 0 .037-.062.069-.138.069-.09 0-.137.046-.137.137 0 .076-.03.138-.068.138-.038 0-.069.048-.069.107 0 .138-.305.445-.443.445-.06 0-.106-.06-.106-.138 0-.076-.03-.138-.068-.138-.038 0-.069-.047-.069-.105 0-.137-.582-.722-.718-.722-.06 0-.105-.06-.105-.138 0-.105-.046-.138-.19-.138a.374.374 0 01-.29-.138c-.084-.118-.178-.138-.633-.138-.31 0-.533.029-.533.069zm20.852 11.035c0 .038.031.069.069.069a.069.069 0 000-.138.069.069 0 00-.069.069z" /></svg>