<svg viewBox="0 0 37 40" xmlns="http://www.w3.org/2000/svg"><path fill-rule="evenodd" clip-rule="evenodd" d="M17.99.171c-.2.227-.19.302.038.302.218 0 .534.282.534.477 0 .2.808.969 1.02.969.101 0 .185.054.185.12 0 .067.108.121.24.121.133 0 .242.054.242.12 0 .067.108.121.24.121.133 0 .242.054.242.12 0 .067.27.121.602.121.332 0 .603.054.603.12 0 .067.054.121.12.121.183 0 .144-.596-.052-.792-.094-.095-.245-.172-.334-.172-.09 0-.241-.109-.337-.241-.095-.133-.27-.241-.388-.241s-.214-.054-.214-.12c0-.067-.097-.121-.215-.121s-.292-.109-.388-.241a.665.665 0 00-.482-.241.665.665 0 01-.482-.241.658.658 0 00-.509-.241c-.184 0-.335-.054-.335-.12 0-.17-.153-.143-.33.06zm6.868 1.088c-.15.16-.271.361-.271.448 0 .087-.109.237-.241.332a.658.658 0 00-.241.51c0 .183-.054.334-.12.334-.075 0-.121.603-.121 1.567s.046 1.566.12 1.566c.067 0 .12.217.12.482s.055.482.121.482c.067 0 .12.193.12.427 0 .457.43 1.02.779 1.02.102 0 .186.054.186.12s.217.12.482.12.482-.054.482-.12.108-.12.241-.12.241.054.241.12.163.12.362.12c.198 0 .361.055.361.12 0 .067.163.121.362.121.198 0 .361.055.361.12 0 .067.141.121.313.121.193 0 .444.14.651.362.186.199.4.362.474.362.19 0 .972.8.972.993 0 .087.109.236.241.332.133.096.241.27.241.388s.055.215.12.215c.067 0 .121.162.121.361 0 .199.055.362.12.362.067 0 .121.162.121.361 0 .2.055.362.12.362.07 0 .121.361.121.843s.052.844.12.844c.067 0 .121.163.121.361 0 .2-.054.362-.12.362s-.12.271-.12.602c0 .332-.055.603-.121.603s-.12.097-.12.214c0 .118-.11.293-.242.389-.132.095-.24.27-.24.388 0 .134-.09.214-.242.214-.132 0-.24.054-.24.12 0 .067-.163.121-.362.121-.2 0-.362.054-.362.12 0 .067-.162.121-.361.121-.2 0-.362.054-.362.12 0 .067-.217.121-.482.121s-.482-.054-.482-.12c0-.067-.163-.12-.361-.12-.2 0-.362-.055-.362-.121 0-.067-.321-.12-.723-.12-.402 0-.723.053-.723.12 0 .066-.109.12-.241.12-.16 0-.241.08-.241.241 0 .133-.054.241-.12.241-.067 0-.121.217-.121.482s-.054.482-.12.482c-.074 0-.121.522-.121 1.326 0 .803.047 1.325.12 1.325.067 0 .12.267.12.593 0 .361.06.616.152.654.116.047.112.088-.018.178-.137.096-.11.175.145.431.172.173.385.314.473.314.088 0 .238.108.334.24.15.21.311.242 1.231.242.625 0 1.058-.05 1.058-.12 0-.067.163-.121.362-.121.198 0 .361-.055.361-.12 0-.067.163-.122.362-.122.199 0 .361-.054.361-.12s.217-.12.482-.12h.482v.482c0 .265.055.482.12.482.067 0 .121.27.121.602 0 .332.055.603.12.603.068 0 .121.321.121.723 0 .401-.053.723-.12.723-.069 0-.12.361-.12.843s-.052.844-.121.844c-.066 0-.12.205-.12.455 0 .317-.074.508-.242.63-.132.095-.24.27-.24.388 0 .117-.055.214-.121.214-.067 0-.12.108-.12.241 0 .178-.081.241-.31.241-.43 0-.655-.267-.655-.775 0-.236-.054-.43-.12-.43-.067 0-.12-.108-.12-.241s-.055-.241-.121-.241c-.067 0-.12-.085-.12-.19 0-.232-.287-.533-.508-.533-.09 0-.24-.109-.336-.241a.658.658 0 00-.509-.241c-.184 0-.335-.054-.335-.12 0-.067-.271-.121-.602-.121-.332 0-.603.054-.603.12 0 .067-.137.12-.305.12-.407 0-1.141.735-1.141 1.142 0 .168-.054.305-.12.305-.067 0-.121.205-.121.455 0 .317.073.509.24.63.133.095.242.299.242.452 0 .313.733 1.114 1.02 1.114.102 0 .185.054.185.12 0 .067.108.121.241.121s.241.054.241.12c0 .067.108.121.241.121s.241.054.241.12c0 .067.217.121.482.121.435 0 .482.03.482.303 0 .427-1.68 2.107-2.107 2.107-.167 0-.303.055-.303.12 0 .067-.108.121-.241.121s-.241.055-.241.12c0 .067-.217.121-.482.121s-.482.055-.482.12c0 .2-2.034.153-2.238-.05-.198-.198-.23-.552-.052-.552.067 0 .12-.321.12-.723 0-.401-.053-.723-.12-.723-.066 0-.12-.108-.12-.24 0-.133-.055-.242-.12-.242-.067 0-.121-.085-.121-.19 0-.243-.29-.533-.534-.533-.104 0-.19-.054-.19-.12 0-.067-.3-.12-.666-.12-.6 0-.709.04-1.085.417-.256.257-.418.535-.418.723 0 .168-.054.305-.12.305s-.12.313-.12.697c0 .558.047.73.24.87.133.095.241.248.241.34 0 .09.163.318.362.503.425.397.446.483.12.483-.132 0-.24.054-.24.12s-.109.12-.242.12c-.132 0-.24.055-.24.121s-.163.12-.362.12c-.199 0-.362.055-.362.121s-.216.12-.482.12c-.265 0-.482.055-.482.121 0 .074-.602.12-1.566.12-.964 0-1.567-.046-1.567-.12 0-.066-.163-.12-.361-.12-.2 0-.362-.055-.362-.121s-.15-.12-.335-.12a.658.658 0 01-.508-.242c-.096-.132-.27-.24-.389-.24-.117 0-.214-.055-.214-.121s-.084-.12-.186-.12c-.216 0-.778-.527-.778-.73 0-.076-.163-.29-.362-.476-.272-.254-.361-.445-.361-.771 0-.426.009-.434.482-.434.265 0 .482-.054.482-.12s.271-.12.602-.12c.332 0 .603-.055.603-.121s.083-.12.185-.12c.24 0 1.02-.781 1.02-1.021 0-.102.054-.185.12-.185.07 0 .121-.401.121-.964 0-.562-.05-.964-.12-.964-.067 0-.12-.085-.12-.19 0-.284-.306-.533-.655-.533-.17 0-.31-.054-.31-.12 0-.067-.217-.121-.482-.121s-.482.054-.482.12c0 .067-.163.121-.362.121-.248 0-.361.06-.361.19 0 .218-.282.533-.478.533-.262 0-.968.832-.968 1.14 0 .43-.286.39-.787-.112-.257-.256-.418-.535-.418-.723 0-.168-.054-.305-.12-.305-.07 0-.121-.361-.121-.843 0-.483-.052-.844-.12-.844-.07 0-.121-.362-.121-.844v-.843h.843c.482 0 .844-.052.844-.12 0-.067.162-.121.361-.121.267 0 .362-.057.362-.215 0-.118.108-.292.24-.388.133-.095.242-.27.242-.388s.054-.214.12-.214c.075 0 .12-.603.12-1.567s-.045-1.567-.12-1.567c-.066 0-.12-.216-.12-.482 0-.265-.054-.482-.12-.482-.067 0-.121-.108-.121-.24 0-.133-.054-.242-.12-.242-.067 0-.121-.083-.121-.186 0-.293-.56-.778-.899-.778-.168 0-.306-.054-.306-.12s-.109-.12-.241-.12c-.133 0-.241-.055-.241-.121s-.137-.12-.305-.12c-.34 0-1.382-.952-1.382-1.263 0-.101-.055-.184-.12-.184-.067 0-.121-.271-.121-.602 0-.332-.055-.603-.12-.603-.067 0-.121-.217-.121-.482s.054-.482.12-.482.12-.109.12-.241c0-.133-.054-.241-.12-.241s-.12-.108-.12-.241.054-.241.12-.241c.072 0 .12-.482.12-1.205 0-.723.049-1.205.121-1.205.066 0 .12-.109.12-.241 0-.133.055-.241.121-.241s.12-.271.12-.603c0-.331.055-.602.121-.602s.12-.138.12-.307c0-.324.481-.898.752-.898.088 0 .238-.109.333-.241a.658.658 0 01.509-.242c.254 0 .335-.057.335-.24 0-.138.08-.242.186-.242.241 0 .778-.536.778-.777 0-.103.054-.187.12-.187.067 0 .12-.216.12-.482 0-.265.055-.482.121-.482.174 0 .149-.449-.03-.532-.12-.056-.12-.084 0-.14.178-.084.206-1.015.03-1.015-.066 0-.12-.27-.12-.602 0-.332-.054-.603-.12-.603-.067 0-.121-.217-.121-.482s-.054-.482-.12-.482c-.067 0-.121-.108-.121-.24 0-.133-.054-.242-.12-.242-.067 0-.121-.108-.121-.24 0-.134-.054-.242-.12-.242-.067 0-.121-.108-.121-.241s-.054-.241-.12-.241c-.067 0-.121-.108-.121-.241 0-.16-.08-.241-.241-.241-.133 0-.241-.054-.241-.12 0-.067-.109-.121-.241-.121-.133 0-.241-.054-.241-.12 0-.067-.163-.121-.362-.121-.199 0-.361.054-.361.12 0 .067-.271.12-.603.12-.331.001-.602.055-.602.121 0 .067-.163.121-.362.121-.199 0-.361.054-.361.12 0 .067-.084.121-.187.121-.216 0-.778.527-.778.73 0 .075-.162.29-.361.475-.199.186-.362.402-.362.48 0 .078-.216.35-.482.605-.265.254-.482.548-.482.653 0 .105-.054.19-.12.19s-.12.109-.12.241c0 .133-.055.241-.121.241s-.12.109-.12.241c0 .133-.055.241-.121.241s-.12.217-.12.482-.055.482-.121.482-.12.163-.12.362c0 .199-.055.361-.121.361-.07 0-.12.402-.12.964 0 .563-.051.965-.121.965-.067 0-.12.108-.12.24 0 .133.053.242.12.242.066 0 .12.108.12.24 0 .133-.054.242-.12.242-.067 0-.12.321-.12.723 0 .401-.054.723-.121.723-.176 0-.148.93.03 1.014.12.056.12.084 0 .14-.083.04-.15.279-.15.533s.067.493.15.532c.12.056.12.084 0 .14-.212.1-.212 2.412 0 2.511.12.056.12.085 0 .14-.179.084-.204.533-.03.533.066 0 .12.271.12.603 0 .331.054.602.12.602.068 0 .121.322.121.723 0 .402.054.723.12.723.067 0 .121.217.121.482s.055.482.12.482c.067 0 .121.217.121.482s.055.482.12.482c.067 0 .121.271.121.603 0 .331.055.603.12.603.067 0 .121.108.121.24 0 .133.055.242.12.242.067 0 .121.082.121.182 0 .222 2.224 2.469 2.443 2.469.085 0 .233.108.329.24.096.133.27.242.388.242s.215.054.215.12c0 .067.108.12.24.12.21 0 .242.081.242.603 0 .332-.055.603-.12.603-.067 0-.121.271-.121.602 0 .332.054.603.12.603.069 0 .12.361.12.844 0 .482.052.843.121.843.066 0 .12.108.12.241s.055.241.121.241.12.097.12.215c0 .117.11.292.242.388.132.095.24.27.24.388s.055.214.121.214.12.086.12.19c0 .105.218.399.483.654.466.448.482.488.482 1.256 0 .448.052.792.12.792.067 0 .12.086.12.19 0 .243.291.533.535.533.104 0 .189.083.189.184 0 .223 1.258 1.504 1.477 1.504.086 0 .235.108.33.24.096.133.27.242.389.242.117 0 .214.054.214.12s.163.12.361.12c.2 0 .362.055.362.121s.267.12.593.12c.36 0 .616.06.653.151.046.114.095.107.2-.03.105-.136.154-.144.2-.03.074.181 1.246.21 1.246.03 0-.073.522-.12 1.326-.12.803 0 1.325-.048 1.325-.12 0-.067.109-.121.241-.121.133 0 .241-.055.241-.12 0-.067.151-.121.335-.121.197 0 .407-.1.509-.242a.643.643 0 01.46-.24c.163 0 .432-.156.625-.362.328-.352.723-.483.723-.241 0 .066.266.12.592.12.356 0 .62.06.663.151.056.12.084.12.14 0 .043-.09.307-.15.663-.15.326 0 .593-.055.593-.121s.162-.12.361-.12c.2 0 .362-.055.362-.121s.108-.12.24-.12c.133 0 .242-.055.242-.121s.217-.12.482-.12.482-.055.482-.121.096-.12.214-.12.293-.109.389-.242c.095-.132.245-.24.333-.24.193 0 .751-.54.751-.726 0-.074.271-.398.603-.72.331-.324.602-.672.602-.776 0-.104.054-.189.12-.189.067 0 .121-.084.121-.186 0-.215.526-.778.727-.778.075 0 .344-.217.599-.482s.525-.482.601-.482c.267 0 .483-.348.483-.775 0-.236.055-.43.12-.43.067 0 .121-.163.121-.361 0-.2.055-.362.12-.362.067 0 .121-.163.121-.362 0-.198.055-.361.12-.361.067 0 .121-.271.121-.603 0-.331.055-.602.121-.602s.12-.109.12-.241c0-.133-.054-.241-.12-.241-.179 0-.15-1.171.03-1.256.12-.056.12-.084 0-.14-.09-.042-.15-.307-.15-.663 0-.326-.055-.592-.121-.592s-.12-.163-.12-.362c0-.199-.055-.361-.121-.361s-.12-.163-.12-.362c0-.199-.055-.361-.121-.361a.12.12 0 01-.12-.121c0-.066.108-.12.24-.12.133 0 .241-.055.241-.121s.109-.12.241-.12c.161 0 .242-.08.242-.242 0-.135.08-.24.183-.24.225 0 1.263-1.017 1.263-1.236 0-.087.108-.236.24-.331.133-.096.242-.249.242-.34 0-.091.162-.318.361-.504.223-.207.362-.458.362-.65 0-.173.054-.314.12-.314s.12-.163.12-.361c0-.2.055-.362.121-.362.067 0 .12-.271.12-.602 0-.332.055-.603.121-.603.067 0 .12-.321.12-.723 0-.402.054-.723.121-.723.074 0 .12-.562.12-1.446 0-.884-.046-1.446-.12-1.446-.066 0-.12-.109-.12-.241 0-.133.054-.241.12-.241s.12-.109.12-.241c0-.133-.053-.241-.12-.241-.066 0-.12-.271-.12-.603 0-.331-.054-.602-.12-.602-.067 0-.121-.272-.121-.603 0-.331-.054-.602-.12-.602-.067 0-.121-.217-.121-.483 0-.265-.055-.482-.12-.482-.067 0-.121-.108-.121-.24 0-.133-.055-.242-.12-.242-.067 0-.121-.216-.121-.482 0-.265-.055-.482-.12-.482-.067 0-.121-.162-.121-.361 0-.199-.055-.362-.12-.362-.067 0-.121-.086-.121-.192 0-.106-.163-.345-.362-.53-.199-.186-.361-.413-.361-.504 0-.092-.109-.245-.242-.34-.132-.096-.24-.244-.24-.33 0-.204-1.757-1.96-1.96-1.96-.086 0-.235-.108-.33-.241-.096-.133-.27-.241-.388-.241s-.215-.054-.215-.12c0-.067-.108-.121-.24-.121-.133 0-.242-.054-.242-.12 0-.067-.108-.121-.24-.121-.133 0-.242-.054-.242-.12 0-.067-.108-.121-.24-.121-.133 0-.242-.054-.242-.12 0-.067-.108-.121-.24-.121-.133 0-.242-.054-.242-.12 0-.067-.108-.121-.24-.121-.133 0-.242-.054-.242-.12 0-.067-.158-.121-.351-.121-.194 0-.38-.068-.413-.15-.046-.115-.095-.107-.2.03-.105.136-.154.143-.2.03-.042-.104-.353-.149-.985-.144-.815.007-.956.042-1.195.297zm2.38 1.021c0 .067.163.121.362.121.198 0 .361.054.361.12 0 .067.163.121.362.121.198 0 .361.054.361.12 0 .067.163.121.362.121.198 0 .361.054.361.12 0 .067.109.121.241.121.133 0 .241.054.241.12 0 .067.097.121.215.121s.292.108.388.241c.095.133.244.241.33.241.192 0 1.236 1.024 1.236 1.211 0 .074.217.342.482.597.266.254.483.536.483.626 0 .09.108.242.24.338.133.095.242.27.242.388s.054.214.12.214.12.109.12.241c0 .133.055.241.121.241s.12.163.12.362c0 .199.055.361.121.361s.12.217.12.482c0 .266.055.482.121.482s.12.163.12.362c0 .199.055.361.121.361s.12.217.12.483c0 .265.055.482.121.482.072 0 .12.442.12 1.084 0 .643.05 1.085.121 1.085.075 0 .12.683.12 1.807 0 1.125-.045 1.808-.12 1.808-.066 0-.12.217-.12.482s-.055.482-.12.482c-.067 0-.121.217-.121.482s-.055.482-.12.482c-.067 0-.121.163-.121.362 0 .198-.055.361-.12.361-.067 0-.121.15-.121.335 0 .197-.1.407-.242.509-.132.095-.24.244-.24.33 0 .19-1.509 1.718-1.697 1.718-.074 0-.287.163-.473.362-.185.199-.424.361-.53.361-.106 0-.193.055-.193.12 0 .067-.108.121-.24.121-.133 0-.242.055-.242.121s-.162.12-.361.12c-.2 0-.362.055-.362.121s-.217.12-.482.12c-.401 0-.482-.04-.482-.24 0-.133.054-.242.12-.242.067 0 .121-.158.121-.351 0-.193.068-.38.15-.413.115-.046.107-.095-.03-.2-.136-.105-.143-.154-.03-.2.179-.072.206-.764.03-.764-.066 0-.12-.27-.12-.602 0-.332-.054-.603-.12-.603-.067 0-.12-.108-.12-.24 0-.215.08-.242.722-.242.402 0 .723-.053.723-.12s.109-.12.241-.12c.133 0 .241-.055.241-.121 0-.067.109-.12.241-.12.133 0 .241-.055.241-.121 0-.067.109-.12.241-.12.133 0 .241-.055.241-.121 0-.067.109-.12.241-.12.161 0 .241-.081.241-.242 0-.133.055-.24.12-.24.067 0 .121-.11.121-.242 0-.133.055-.24.12-.24.067 0 .121-.164.121-.363 0-.198.055-.361.121-.361s.12-.163.12-.362c0-.198.055-.361.121-.361s.12-.212.12-.472.068-.504.151-.542c.12-.056.12-.085 0-.14-.083-.04-.15-.284-.15-.543 0-.26-.055-.472-.121-.472-.067 0-.12-.322-.12-.723 0-.402-.054-.723-.121-.723-.066 0-.12-.26-.12-.576 0-.438-.058-.618-.242-.75-.132-.095-.24-.27-.24-.388s-.055-.214-.121-.214-.12-.097-.12-.215-.11-.292-.242-.388c-.132-.095-.24-.246-.24-.333 0-.22-.55-.752-.778-.752-.103 0-.187-.054-.187-.12s-.108-.12-.24-.12c-.161 0-.242-.08-.242-.242 0-.16-.08-.24-.24-.24-.133 0-.242-.055-.242-.121s-.108-.12-.24-.12c-.133 0-.242-.055-.242-.121s-.108-.12-.24-.12c-.133 0-.242-.055-.242-.121s-.271-.12-.602-.12c-.59 0-.603-.009-.603-.362 0-.199.054-.362.12-.362.067 0 .121-.318.121-.713 0-.452.055-.738.15-.783.121-.056.121-.084 0-.14-.095-.045-.15-.331-.15-.784 0-.395-.054-.713-.12-.713-.067 0-.12-.217-.12-.482s-.055-.482-.121-.482c-.067 0-.12-.108-.12-.241s-.055-.241-.121-.241a.12.12 0 01-.121-.12c0-.067.108-.121.241-.121s.241.054.241.12zM6.27 3.365c0 .133-.055.241-.12.241-.067 0-.121.109-.121.241 0 .133-.055.241-.12.241-.075 0-.121.563-.121 1.446 0 .884.046 1.446.12 1.446.067 0 .12.322.12.723 0 .402.054.723.121.723.066 0 .12.109.12.241 0 .133.055.241.121.241s.12.109.12.241c0 .14.081.241.19.241.183 0 .534.272.534.414 0 .038-.084.069-.187.069-.24 0-.777.536-.777.777 0 .103-.055.187-.12.187-.067 0-.121.108-.121.24 0 .133-.055.242-.12.242-.067 0-.121.216-.121.482 0 .265-.055.482-.12.482-.067 0-.121.108-.121.24 0 .133-.055.242-.12.242-.067 0-.121.27-.121.602 0 .332-.055.603-.121.603-.072 0-.12.478-.12 1.195 0 .838-.045 1.216-.151 1.265-.12.056-.12.085 0 .14.1.047.15.356.15.904 0 .476.052.834.121.834.066 0 .12.217.12.482s.055.482.121.482.12.217.12.482.055.482.121.482.12.083.12.184c0 .24 1.024 1.262 1.263 1.262.103 0 .184.106.184.241 0 .133-.055.241-.12.241-.068 0-.121.322-.121.723 0 .402-.054.723-.12.723-.188 0-.16 2.619.028 2.681.109.037.095.105-.051.251-.283.283-.435.254-.821-.16-.186-.199-.4-.361-.475-.361-.189 0-.972-.8-.972-.994 0-.087-.108-.236-.24-.332-.133-.096-.242-.248-.242-.34 0-.091-.162-.318-.361-.503-.199-.186-.362-.425-.362-.53 0-.107-.054-.194-.12-.194s-.12-.162-.12-.361c0-.199-.055-.362-.121-.362s-.12-.27-.12-.602c0-.332-.055-.603-.121-.603s-.12-.162-.12-.361c0-.2-.055-.362-.121-.362-.069 0-.12-.358-.12-.833 0-.55-.052-.858-.151-.904-.12-.056-.12-.084 0-.14.182-.086.21-1.497.03-1.497-.077 0-.12-1.085-.12-3.013s.043-3.012.12-3.012c.072 0 .12-.482.12-1.205 0-.724.049-1.206.12-1.206.067 0 .121-.216.121-.482 0-.265.055-.482.12-.482.067 0 .121-.108.121-.24 0-.133.055-.242.12-.242.067 0 .121-.217.121-.482s.055-.482.12-.482c.067 0 .121-.15.121-.335 0-.196.1-.406.241-.508.133-.096.241-.245.241-.331 0-.22 1.038-1.236 1.263-1.236.103 0 .184-.105.184-.24 0-.162.08-.242.24-.242.133 0 .242-.054.242-.12 0-.067.108-.121.24-.121.161 0 .242.08.242.241zm12.05.603c0 .066-.216.12-.482.12-.265 0-.482.054-.482.12 0 .067-.108.121-.24.121-.133 0-.242.054-.242.12 0 .067.055.121.12.121.067 0 .121.109.121.241 0 .133.055.241.12.241a.12.12 0 00.121-.12c0-.076.746-.12 1.997-.12 1.57 0 2.034-.038 2.17-.173.245-.246.215-.31-.146-.31-.177 0-.419-.117-.549-.267-.196-.227-.25-.24-.354-.09-.093.133-.138.14-.184.026-.076-.186-1.97-.215-1.97-.03zm1.764 2.803c-.152.183-.243.221-.281.119-.095-.254-.405-.168-.76.21-.185.2-.453.362-.596.362-.299 0-.85.505-.85.778 0 .137.128.186.482.186.266 0 .482-.054.482-.12s.217-.12.483-.12c.265 0 .482-.055.482-.121s.27-.12.602-.12c.331 0 .603-.055.603-.121s.162-.12.361-.12c.199 0 .362-.055.362-.121s.085-.12.189-.12c.244 0 .534-.29.534-.534 0-.13-.113-.19-.362-.19-.199 0-.361-.054-.361-.12 0-.174-.45-.149-.533.03-.056.12-.084.12-.14 0-.11-.234-.45-.175-.697.122zm-5.138 13.104c0 .066-.162.12-.361.12-.2 0-.362.054-.362.12 0 .067-.163.121-.361.121-.2 0-.362.055-.362.12 0 .067-.217.121-.482.121s-.482.055-.482.12c0 .067-.085.121-.19.121-.406 0-.72.627-.382.764.114.047.107.091-.027.184-.098.068-.138.162-.091.21.047.047.202-.045.344-.204.172-.195.276-.24.312-.14.064.178.998.207.998.03 0-.067.109-.12.241-.12.133 0 .241-.055.241-.121 0-.067.163-.12.362-.12.199 0 .361-.055.361-.121s.163-.12.362-.12c.199 0 .361-.055.361-.121s.163-.12.362-.12c.276 0 .361-.056.361-.232 0-.127.067-.253.15-.28.109-.037.095-.105-.052-.252-.221-.221-1.303-.288-1.303-.08zm-.723 4.097c0 .066-.271.12-.602.12-.468 0-.603.043-.603.19 0 .412.314.534 1.377.534.609 0 1.033.05 1.033.12 0 .066.217.12.482.12s.482-.054.482-.12.163-.12.362-.12c.199 0 .361.054.361.12 0 .19.36.14.58-.08.147-.147.16-.215.052-.252-.082-.027-.15-.153-.15-.28 0-.19-.087-.232-.482-.232-.265 0-.482-.054-.482-.12s-.27-.12-.602-.12c-.332 0-.603.054-.603.12s-.108.12-.24.12c-.133 0-.242-.054-.242-.12s-.162-.12-.361-.12c-.2 0-.362.054-.362.12zm-1.536 2.71c-.2.228-.19.303.038.303.244 0 .534.29.534.533 0 .11.102.19.241.19.133 0 .241.054.241.12 0 .067.163.12.362.12.199 0 .361.055.361.121 0 .067.163.12.362.12.198 0 .361.055.361.121 0 .067.217.12.482.12s.482.055.482.121c0 .067.271.12.603.12.331 0 .602-.053.602-.12a.12.12 0 00-.12-.12c-.066 0-.12-.109-.12-.241 0-.16-.081-.241-.242-.241-.132 0-.24-.055-.24-.12 0-.067-.11-.121-.242-.121s-.24-.054-.24-.12c0-.067-.163-.121-.362-.121-.2 0-.362-.054-.362-.12 0-.067-.108-.121-.24-.121-.133 0-.242-.054-.242-.12 0-.067-.27-.121-.602-.121-.332 0-.603-.055-.603-.12 0-.067-.108-.121-.24-.121-.133 0-.242-.055-.242-.12 0-.18-.399-.138-.572.059zm14.976 3.975c.297.296.54.622.54.723 0 .101.053.184.12.184.066 0 .12.158.12.352 0 .193.067.373.15.4.106.036.085.115-.072.271-.185.186-.239.194-.339.051-.091-.13-.133-.135-.18-.02-.072.179-.523.205-.523.03 0-.066-.108-.12-.24-.12-.134 0-.242-.054-.242-.12 0-.067-.083-.12-.185-.12-.343 0-1.02-.804-1.02-1.21 0-.406.232-.72.534-.72.104 0 .189-.053.189-.12 0-.066.137-.12.304-.12.2 0 .49.185.844.54zm-15.368 1.51c0 .198.054.361.12.361.221 0 .125.369-.175.668-.162.163-.434.296-.602.296-.17 0-.307.054-.307.12 0 .068-.321.121-.723.121-.643 0-.723-.027-.723-.24 0-.133.054-.242.12-.242.067 0 .12-.14.12-.31 0-.336.248-.654.508-.654.09 0 .24-.108.336-.24.133-.184.312-.242.75-.242.56 0 .576.01.576.362zm8.263 2.461a.611.611 0 01.173.362c0 .104.054.19.12.19.175 0 .149.45-.03.522-.114.046-.106.096.03.2.137.105.144.154.03.2-.082.034-.15.165-.15.292 0 .379-.334.265-.907-.308-.507-.506-.692-.907-.419-.907.066 0 .12-.083.12-.186 0-.472.684-.714 1.033-.365z" /></svg>