<svg viewBox="0 0 50 41" xmlns="http://www.w3.org/2000/svg"><path fill-rule="evenodd" clip-rule="evenodd" d="M6.166.633c0 .068-.357.119-.833.119S4.5.802 4.5.87c0 .065-.214.119-.476.119s-.476.053-.476.119c0 .065-.16.119-.357.119-.197 0-.357.053-.357.119 0 .065-.096.119-.212.119-.116 0-.289.107-.383.238-.095.13-.267.238-.384.238-.116 0-.211.087-.211.194 0 .107-.12.302-.268.433-.182.161-.22.255-.119.291.235.085.173.272-.09.272-.198 0-.237.08-.237.476 0 .262-.054.476-.12.476-.065 0-.118.214-.118.476s-.054.476-.12.476c-.18 0-.152 1.63.03 1.716.12.055.12.083 0 .139-.193.09-.193.723 0 .813.12.055.12.083 0 .139-.176.082-.202.763-.03.763.173 0 .147.682-.03.764-.118.055-.118.083 0 .139.177.082.203.763.03.763-.065 0-.118.215-.118.476 0 .262.053.476.119.476.07 0 .119.397.119.952 0 .556-.05.953-.12.953-.074 0-.118.713-.118 1.904 0 1.19.044 1.904.119 1.904.171 0 .146.443-.03.525-.12.056-.12.084 0 .14.176.081.201.525.03.525-.188 0-.159 4.246.03 4.334.118.055.118.083 0 .138-.205.096-.205 1.67 0 1.766.118.055.118.083 0 .139-.19.088-.219 4.81-.03 4.81.066 0 .119.317.119.713 0 .397.053.714.119.714.065 0 .119.161.119.358 0 .196.053.357.119.357.065 0 .119.214.119.476 0 .261.053.476.119.476.065 0 .119.085.119.19s.16.34.357.524c.196.183.357.394.357.47 0 .302.583.72 1.006.72.232 0 .422.053.422.119 0 .07.436.119 1.07.119.636 0 1.072.048 1.072.119 0 .173.681.146.764-.03.055-.12.083-.12.138 0 .083.176.526.201.526.03 0-.172.445-.147.517.03.045.112.094.105.197-.03.104-.135.152-.142.198-.03.038.095.31.149.754.149.44 0 .72-.055.764-.15.055-.118.083-.118.139 0 .041.09.3.15.644.15.344 0 .603-.06.645-.15.055-.118.083-.118.139 0 .05.11.562.15 1.953.15s1.903-.04 1.954-.15c.056-.118.083-.118.139 0 .049.105.42.15 1.24.15.82 0 1.19-.045 1.24-.15.055-.118.083-.118.138 0 .082.177 1.002.204 1.002.03 0-.069.396-.118.952-.118.555 0 .952.05.952.119 0 .07.396.119.952.119.555 0 .952-.05.952-.12 0-.065.107-.118.238-.118.13 0 .238.053.238.119 0 .065.107.119.238.119.206 0 .238.08.238.595 0 .327-.054.595-.12.595-.064 0-.118.107-.118.238 0 .13.053.238.119.238.071 0 .119.476.119 1.19v1.19h-.357c-.196 0-.357-.054-.357-.12 0-.065-.107-.118-.238-.118s-.238.053-.238.119c0 .065-.16.119-.357.119-.197 0-.357-.054-.357-.12 0-.065-.107-.118-.238-.118s-.238.053-.238.119c0 .065-.16.119-.357.119-.197 0-.357-.054-.357-.12 0-.065-.214-.118-.476-.118s-.476.053-.476.119c0 .173-.684.146-.755-.03-.045-.112-.094-.105-.197.03-.104.135-.152.142-.198.03-.071-.177-.516-.202-.516-.03 0 .076-.952.119-2.619.119-1.666 0-2.618.043-2.618.119 0 .065-.084.119-.187.119-.18 0-.527.268-.527.408 0 .037.107.068.238.068.177 0 .238.08.238.306 0 .168.077.383.17.476.21.21.975.225 1.07.021.056-.119.083-.119.139 0 .041.09.3.149.644.149.344 0 .604-.06.645-.149.056-.119.083-.119.139 0 .052.111.634.149 2.31.149 1.677 0 2.26-.038 2.311-.149.056-.119.084-.119.14 0 .048.105.419.149 1.239.149.824 0 1.188-.044 1.23-.149.046-.112.094-.105.198.03.103.135.152.142.197.03.072-.177.517-.202.517-.03 0 .071.476.119 1.19.119s1.19-.048 1.19-.119c0-.066.16-.119.357-.119.196 0 .357.053.357.119 0 .065.107.119.238.119s.238-.054.238-.119c0-.066.214-.119.476-.119s.476.053.476.119c0 .065.107.119.238.119s.238-.054.238-.119c0-.066.268-.119.595-.119.328 0 .595.053.595.119 0 .065.215.119.476.119.262 0 .476-.054.476-.119 0-.066.107-.119.238-.119s.238.053.238.119c0 .065.107.119.238.119s.238-.054.238-.119c0-.066.161-.119.357-.119.197 0 .357.053.357.119 0 .065.108.119.238.119.131 0 .238-.054.238-.119 0-.066.318-.119.715-.119.396 0 .714.053.714.119 0 .065.107.119.237.119.131 0 .239-.054.239-.119 0-.173.681-.146.763.03.056.119.084.119.139 0 .083-.179 1.24-.206 1.24-.03 0 .065.107.119.238.119.13 0 .238-.054.238-.119 0-.066.082-.119.184-.119.252 0 .865-.622.675-.685-.08-.027-.145-.128-.145-.226 0-.368-.325-.517-1.122-.517-.442 0-.782-.052-.782-.12 0-.065-.108-.118-.238-.118-.131 0-.238.053-.238.119 0 .074-.675.119-1.785.119-1.111 0-1.786-.045-1.786-.12 0-.067-.357-.118-.833-.118s-.833.05-.833.119c0 .074-.753.119-2.023.119H26.16v-.476c0-.262.054-.476.12-.476.071 0 .118-.516.118-1.31 0-.793-.047-1.308-.119-1.308-.065 0-.119-.107-.119-.238 0-.186.08-.238.357-.238.197 0 .357-.054.357-.12 0-.065.214-.118.476-.118s.476.053.476.119c0 .173.92.146 1.002-.03.055-.12.083-.12.139 0 .082.176.525.201.525.03 0-.07.437-.12 1.071-.12.635 0 1.071.05 1.071.12 0 .065.108.119.238.119.131 0 .238-.054.238-.12 0-.076 1.19-.118 3.333-.118 2.142 0 3.332.042 3.332.119 0 .065.16.119.357.119.196 0 .357-.054.357-.12 0-.065.214-.118.476-.118s.476.053.476.119c0 .173.92.146 1.002-.03.055-.12.083-.12.138 0 .083.176.526.201.526.03 0-.172.443-.147.526.03.055.118.083.118.138 0 .083-.177.526-.202.526-.03 0 .171.443.146.526-.03.055-.12.083-.12.138 0 .083.176.526.201.526.03 0-.066.214-.12.476-.12s.476.054.476.12c0 .172.445.146.517-.03.045-.112.094-.105.197.03.104.135.152.142.198.03.033-.082.216-.15.407-.15.191 0 .347-.053.347-.118 0-.066.136-.12.3-.12.337 0 1.366-.939 1.366-1.246 0-.1.054-.181.12-.181.065 0 .118-.108.118-.238 0-.131.054-.238.12-.238.065 0 .118-.161.118-.358 0-.196.054-.356.12-.356.065 0 .118-.108.118-.238 0-.131.054-.238.12-.238.065 0 .118-.315.118-.705 0-.447.055-.73.15-.773.118-.056.118-.083 0-.139-.083-.038-.15-.168-.15-.288 0-.12.067-.245.15-.278.111-.046.104-.092-.03-.189-.16-.113-.16-.142 0-.256.134-.096.141-.143.03-.188-.104-.042-.15-.382-.15-1.112 0-.724-.046-1.073-.148-1.12-.12-.056-.12-.084 0-.14.176-.082.201-.525.03-.525-.066 0-.12-.16-.12-.357 0-.196.054-.357.12-.357.076 0 .118-1.19.118-3.332s-.042-3.332-.119-3.332c-.065 0-.119-.107-.119-.238s.054-.238.12-.238c.067 0 .118-.357.118-.833s-.05-.833-.119-.833c-.19 0-.16-7.816.03-7.904.12-.056.12-.084 0-.14-.082-.037-.149-.167-.149-.287 0-.12.067-.25.15-.287.118-.056.118-.084 0-.14-.099-.045-.15-.348-.15-.882s.051-.837.15-.883c.118-.055.118-.083 0-.138-.083-.039-.15-.28-.15-.536s-.053-.466-.119-.466c-.065 0-.119-.214-.119-.476s-.053-.476-.119-.476c-.065 0-.119-.14-.119-.31 0-.19-.137-.437-.357-.642-.196-.183-.357-.396-.357-.473 0-.2-.307-.48-.527-.48-.103 0-.187-.053-.187-.118 0-.066-.107-.12-.238-.12-.13 0-.238-.053-.238-.118 0-.066-.16-.12-.357-.12-.196 0-.357-.053-.357-.118 0-.066-.214-.12-.476-.12s-.476-.053-.476-.118c0-.07-.436-.12-1.07-.12-.636 0-1.072.05-1.072.12 0 .065-.21.119-.466.119-.265 0-.49.064-.52.149-.036.1-.13.062-.291-.12-.246-.276-1.103-.392-1.103-.148 0 .065-.268.119-.595.119-.327 0-.595-.054-.595-.12 0-.065-.214-.118-.476-.118-.397 0-.476.04-.476.238 0 .158-.08.238-.238.238-.131 0-.238-.054-.238-.12 0-.17-.444-.146-.526.03-.055.12-.083.12-.139 0-.038-.081-.167-.148-.287-.148-.12 0-.25.067-.288.149-.055.119-.083.119-.139 0-.038-.082-.167-.15-.287-.15-.12 0-.25.068-.288.15-.055.119-.083.119-.139 0-.084-.18-1.477-.209-1.477-.03 0 .065-.108.119-.239.119-.13 0-.237-.054-.237-.12 0-.065-.318-.118-.715-.118-.396 0-.714-.053-.714-.12 0-.065-.214-.118-.476-.118-.396 0-.476.04-.476.238 0 .13-.053.238-.119.238-.065 0-.119-.107-.119-.238 0-.216-.079-.238-.833-.238-.476 0-.833.05-.833.119 0 .075-.872.119-2.38.119-1.507 0-2.38-.044-2.38-.12 0-.073-.635-.118-1.666-.118-1.032 0-1.666.045-1.666.119 0 .066-.317.119-.714.119-.397 0-.714-.053-.714-.12 0-.171-.445-.146-.517.03-.045.113-.094.106-.197-.03-.104-.134-.152-.141-.198-.029-.071.176-.516.202-.516.03 0-.173-.682-.146-.764.03-.055.119-.083.119-.139 0-.082-.176-1.001-.204-1.001-.03 0 .065-.107.119-.238.119s-.238-.054-.238-.12c0-.187-4.008-.158-4.096.03-.056.12-.084.12-.139 0-.082-.176-.526-.2-.526-.03 0 .066-.107.12-.238.12-.13 0-.238-.054-.238-.12 0-.182-1.87-.153-1.944.03-.046.113-.094.106-.198-.03-.103-.134-.152-.141-.197-.029-.072.176-.517.202-.517.03 0-.072-.476-.12-1.19-.12s-1.19.048-1.19.12zm34.75 1.19c0 .176 1.156.149 1.24-.03.055-.119.083-.119.138 0 .051.11.54.149 1.835.149 1.3 0 1.781.039 1.826.149.045.112.09.106.181-.026.103-.149.156-.135.35.089.127.145.317.264.424.264.107 0 .194.084.194.188 0 .103.214.393.476.645.42.403.476.522.476 1.002 0 .3.054.545.12.545.065 0 .118.107.118.238s-.053.238-.119.238-.119.317-.119.714c0 .397.053.714.12.714.171 0 .146.443-.03.526-.12.055-.12.083 0 .139.178.083.206 1.24.03 1.24-.075 0-.12.674-.12 1.784 0 1.111.045 1.785.12 1.785.171 0 .146.444-.03.526-.12.056-.12.083 0 .139.175.082.202.764.03.764-.069 0-.12.353-.12.823 0 .542-.05.846-.148.892-.12.056-.12.083 0 .139.093.044.148.325.148.764 0 .443-.053.716-.148.754-.113.046-.106.094.03.198.134.103.141.152.029.197-.176.072-.202.517-.03.517.189 0 .16 5.197-.03 5.286-.118.055-.118.083 0 .138.082.039.15.222.15.407 0 .186-.068.369-.15.407-.118.055-.118.083 0 .139.19.088.22 6.714.03 6.714-.065 0-.119.16-.119.357 0 .196-.053.357-.119.357-.065 0-.119.095-.119.211 0 .117-.107.29-.238.383-.13.095-.238.267-.238.384 0 .132-.089.212-.238.212-.13 0-.238.053-.238.119 0 .072-.515.119-1.309.119-.793 0-1.309.047-1.309.119 0 .178-1.393.15-1.478-.03-.055-.12-.083-.12-.138 0-.086.183-1.954.212-1.954.03 0-.067-.317-.12-.714-.12-.397 0-.714.053-.714.12 0 .183-2.106.154-2.192-.03-.055-.12-.083-.12-.139 0-.038.082-.274.149-.525.149-.258 0-.48.065-.51.148-.036.101-.13.063-.292-.119-.212-.238-.35-.267-1.265-.267-.606 0-1.027.048-1.027.119 0 .065-.108.119-.239.119-.13 0-.238-.054-.238-.12s-.317-.118-.714-.118c-.396 0-.714.052-.714.119 0 .18-1.63.152-1.715-.03-.056-.12-.084-.12-.14 0-.081.176-.525.201-.525.03 0-.172-.443-.147-.525.03-.056.118-.084.118-.14 0-.081-.177-.525-.202-.525-.03 0 .065-.16.119-.357.119-.196 0-.357-.054-.357-.12 0-.172-.445-.146-.517.03-.045.112-.091.105-.188-.03-.114-.158-.142-.158-.256 0-.096.135-.143.142-.188.03-.047-.114-.835-.148-3.373-.148-2.538 0-3.327.034-3.373.148-.045.113-.094.105-.197-.03-.104-.134-.152-.142-.198-.03-.071.177-.516.203-.516.03 0-.077-2.143-.118-6.189-.118s-6.188.04-6.188.119c0 .068-.357.119-.833.119s-.833-.051-.833-.12c0-.065-.082-.118-.182-.118-.307 0-1.246-1.03-1.246-1.366 0-.165-.054-.3-.12-.3-.065 0-.118-.215-.118-.476 0-.262-.054-.477-.12-.477-.183 0-.155-2.343.03-2.43.12-.055.12-.083 0-.138-.175-.082-.202-.764-.03-.764.066 0 .12-.107.12-.238 0-.13-.054-.238-.12-.238-.065 0-.118-.16-.118-.357 0-.196.053-.357.119-.357.172 0 .146-.445-.03-.516-.112-.046-.105-.094.03-.198.135-.103.142-.152.03-.197-.105-.043-.15-.406-.15-1.23 0-.82.045-1.192.15-1.24.119-.056.119-.084 0-.14-.21-.097-.21-2.381 0-2.479.119-.055.119-.083 0-.139-.19-.088-.219-4.81-.03-4.81.065 0 .119-.107.119-.237 0-.131-.054-.238-.12-.238-.178 0-.15-1.396.03-1.47.113-.044.106-.093-.03-.197-.134-.103-.141-.152-.029-.197.176-.072.202-.517.03-.517-.074 0-.12-.674-.12-1.785 0-1.11-.044-1.785-.118-1.785-.066 0-.12-.107-.12-.238 0-.13.054-.238.12-.238.065 0 .119-.16.119-.357 0-.196-.054-.357-.12-.357-.07 0-.118-.436-.118-1.07 0-.636.048-1.072.119-1.072.065 0 .119-.16.119-.357 0-.196.053-.357.119-.357.065 0 .119-.16.119-.357 0-.196.053-.357.119-.357.065 0 .119-.082.119-.182 0-.1.24-.42.532-.714.43-.429.614-.532.952-.532.231 0 .42-.054.42-.12 0-.071.512-.118 1.3-.118.922 0 1.318-.043 1.368-.149.055-.119.083-.119.138 0 .047.1.373.149 1.002.149.634 0 .952-.048.993-.149.045-.112.094-.105.197.03.104.135.152.142.198.03.071-.176.754-.203.754-.03 0 .075.833.119 2.261.119 1.428 0 2.261-.044 2.261-.12 0-.17.444-.146.526.03.056.12.083.12.139 0 .084-.18 1.478-.207 1.478-.03 0 .066.214.12.476.12.261 0 .476-.054.476-.12 0-.065.107-.118.238-.118.13 0 .238.053.238.119s.317.119.714.119c.396 0 .714-.053.714-.12 0-.065.16-.118.357-.118.196 0 .357.053.357.119 0 .187 3.297.157 3.373-.03.045-.112.093-.105.197.03.104.135.152.142.197.03.046-.114.74-.15 2.897-.15 2.153 0 2.853.037 2.906.15.055.119.083.119.139 0 .082-.176 1.001-.204 1.001-.03 0 .065.161.119.357.119.197 0 .357-.054.357-.12 0-.065.215-.118.476-.118.262 0 .477.053.477.119 0 .065.107.119.238.119.13 0 .238-.054.238-.12 0-.073.714-.118 1.904-.118s1.904.045 1.904.119c0 .065.107.119.238.119.13 0 .238-.054.238-.12 0-.17.443-.146.525.03.056.12.084.12.14 0 .047-.102.397-.148 1.13-.148.628 0 1.06-.049 1.06-.12a.12.12 0 01.12-.118.12.12 0 01.119.119zM23.54 6.107c0 .066-.214.12-.476.12s-.476.053-.476.118c0 .066-.317.12-.714.12-.397 0-.714.052-.714.118s-.107.12-.238.12-.238.053-.238.118c0 .066-.214.12-.476.12s-.476.053-.476.118c0 .066-.096.12-.212.12-.117 0-.289.106-.383.237-.095.131-.267.238-.384.238-.116 0-.211.054-.211.12 0 .065-.096.118-.212.118-.117 0-.289.107-.383.238-.095.131-.243.238-.33.238-.088 0-.475.322-.86.714-.386.393-.785.714-.886.714-.102 0-.185.096-.185.212 0 .117-.108.289-.239.383-.13.095-.238.246-.238.336 0 .09-.16.314-.357.497-.196.184-.357.397-.357.474 0 .077-.214.346-.476.598-.314.301-.476.561-.476.764 0 .168-.053.306-.119.306-.065 0-.119.108-.119.239 0 .13-.053.237-.119.237-.065 0-.119.268-.119.596 0 .327-.053.595-.119.595-.065 0-.119.267-.119.595 0 .327-.053.595-.119.595s-.119.317-.119.714c0 .396.053.714.12.714.065 0 .118.107.118.238 0 .13-.053.238-.119.238-.21 0-.127.418.12.595.19.137.237.308.237.86 0 .378.054.687.12.687.065 0 .118.214.118.476s.054.476.12.476c.065 0 .118.16.118.357 0 .196.054.357.12.357.065 0 .118.16.118.357 0 .196.054.357.12.357.065 0 .118.107.118.238 0 .13.054.238.12.238.065 0 .118.193.118.428 0 .323.089.511.357.762.197.183.357.395.357.47 0 .187.55.72.742.72.087 0 .235.107.33.238.094.131.243.238.332.238.218 0 .5.298.5.527 0 .103.096.187.212.187.117 0 .29.107.384.238.094.131.255.238.357.238.102 0 .262.107.357.238.094.131.255.238.357.238.102 0 .262.107.357.238.094.131.267.238.383.238.116 0 .212.054.212.12 0 .065.214.118.476.118s.476.054.476.12c0 .065.16.118.357.118.196 0 .357.054.357.12 0 .065.214.118.476.118s.476.054.476.12c0 .069.396.118.952.118.555 0 .952.05.952.12 0 .172.681.146.764-.03.055-.12.083-.12.138 0 .087.185 2.43.213 2.43.03 0-.066.214-.12.476-.12s.476-.053.476-.119c0-.065.16-.119.357-.119.197 0 .357-.053.357-.119 0-.065.16-.119.357-.119.197 0 .357-.053.357-.119 0-.065.107-.119.238-.119s.238-.053.238-.119c0-.065.15-.119.331-.119a.65.65 0 00.502-.238.657.657 0 01.476-.238.657.657 0 00.476-.238c.095-.13.267-.238.384-.238.116 0 .211-.084.211-.187 0-.216.28-.527.473-.527.175 0 .718-.545.718-.72 0-.075.16-.286.356-.47.197-.183.358-.419.358-.524 0-.104.053-.19.118-.19.066 0 .12-.149.12-.33a.65.65 0 01.238-.503.65.65 0 00.238-.502c0-.182.053-.331.119-.331.065 0 .119-.107.119-.238 0-.13.053-.238.119-.238.065 0 .119-.107.119-.238 0-.13.053-.238.119-.238.065 0 .119-.214.119-.476s.053-.476.119-.476c.065 0 .119-.214.119-.476s.053-.476.119-.476c.065 0 .119-.214.119-.476s-.054-.476-.12-.476c-.073 0-.118-.635-.118-1.666 0-1.032-.046-1.666-.12-1.666-.066 0-.118-.318-.118-.714 0-.397-.053-.714-.12-.714-.065 0-.118-.108-.118-.238 0-.131-.054-.239-.12-.239-.065 0-.118-.107-.118-.238 0-.13-.054-.237-.12-.237-.065 0-.118-.193-.118-.429 0-.322-.089-.51-.357-.762-.197-.183-.358-.396-.358-.472 0-.177-.298-.48-.472-.48-.17 0-.718-.543-.718-.71 0-.182-1.75-1.908-1.935-1.908-.085 0-.231-.107-.326-.238-.094-.13-.245-.238-.335-.238-.09 0-.314-.16-.498-.357-.205-.22-.452-.357-.642-.357-.17 0-.31-.053-.31-.119 0-.065-.107-.119-.238-.119-.13 0-.238-.053-.238-.119 0-.065-.16-.119-.357-.119-.196 0-.357-.053-.357-.119 0-.065-.107-.119-.238-.119-.13 0-.238-.053-.238-.119 0-.172-.443-.147-.526.03-.055.119-.083.119-.138 0-.038-.082-.28-.149-.536-.149s-.466-.053-.466-.119c0-.065-.214-.119-.476-.119s-.476-.053-.476-.119-.317-.119-.714-.119c-.397 0-.714.053-.714.12zm2.618 1.666c0 .066.16.12.357.12.197 0 .357.053.357.118 0 .066.16.12.357.12.197 0 .357.053.357.118 0 .066.16.12.357.12.197 0 .357.053.357.118 0 .066.107.12.238.12s.238.053.238.118c0 .066.107.12.238.12s.238.053.238.118c0 .066.107.12.238.12s.238.053.238.118c0 .066.107.12.238.12s.238.053.238.118c0 .066.081.12.18.12.284 0 2.677 2.455 2.677 2.747 0 .138.16.401.357.585.26.243.357.442.357.735 0 .265.08.46.237.574.131.094.239.266.239.383 0 .116.053.212.118.212.066 0 .12.214.12.476 0 .261.053.476.118.476.074 0 .12.595.12 1.547s.045 1.547.119 1.547c.065 0 .119.16.119.357 0 .196-.054.357-.12.357-.065 0-.118.268-.118.595 0 .327-.054.595-.12.595-.065 0-.118.16-.118.357 0 .196-.054.357-.12.357-.065 0-.118.149-.118.33a.65.65 0 01-.239.503c-.13.094-.237.267-.237.383 0 .117-.054.212-.12.212-.065 0-.118.107-.118.238s-.054.238-.12.238c-.065 0-.118.095-.118.212 0 .116-.108.289-.238.383-.131.095-.239.267-.239.383 0 .117-.053.212-.119.212-.065 0-.119.107-.119.238 0 .136-.079.238-.185.238-.102 0-.5.322-.886.714-.385.393-.784.714-.886.714-.101 0-.185.054-.185.12 0 .065-.16.118-.357.118-.196 0-.357.054-.357.12 0 .065-.16.118-.357.118-.196 0-.357.054-.357.12 0 .065-.107.118-.238.118-.13 0-.238.054-.238.12 0 .065-.317.118-.714.118-.396 0-.714.053-.714.12 0 .065-.268.118-.595.118-.327 0-.595.054-.595.12 0 .065-.16.118-.357.118-.196 0-.357-.053-.357-.119 0-.07-.436-.119-1.071-.119s-1.071-.048-1.071-.119c0-.065-.16-.119-.357-.119-.196 0-.357-.053-.357-.119 0-.067-.348-.119-.807-.119-.67 0-.836-.04-.978-.238-.095-.13-.267-.238-.383-.238-.117 0-.212-.053-.212-.119 0-.065-.16-.119-.357-.119-.197 0-.357-.053-.357-.119 0-.065-.096-.119-.212-.119-.117 0-.289-.107-.383-.238-.095-.13-.244-.238-.333-.238-.09 0-.368-.214-.62-.476-.251-.262-.518-.476-.594-.476-.177 0-.476-.3-.476-.48 0-.076-.161-.288-.357-.472-.197-.183-.357-.42-.357-.524 0-.104-.054-.19-.12-.19-.065 0-.118-.107-.118-.238 0-.13-.054-.238-.12-.238-.065 0-.119-.107-.119-.238 0-.13-.053-.238-.119-.238-.065 0-.119-.107-.119-.238 0-.13-.053-.238-.119-.238-.065 0-.118-.16-.118-.357 0-.196-.054-.357-.12-.357-.065 0-.118-.268-.118-.595 0-.327-.054-.595-.12-.595s-.119-.317-.119-.714c0-.397-.052-.714-.119-.714-.173 0-.146-.685.03-.748.1-.035.05-.144-.149-.323-.197-.18-.247-.288-.148-.324.1-.035.148-.326.148-.876 0-.47.052-.823.12-.823.065 0 .118-.215.118-.476 0-.262.054-.476.12-.476.065 0 .119-.108.119-.238 0-.131.053-.239.119-.239.065 0 .119-.095.119-.211 0-.117.107-.29.237-.383.131-.095.238-.244.238-.332 0-.088.268-.42.596-.74.327-.318.595-.637.595-.708 0-.183 1.51-1.672 1.697-1.672.085 0 .231-.107.326-.238.094-.13.255-.238.357-.238.102 0 .262-.107.357-.238.13-.18.308-.238.74-.238.313 0 .569-.053.569-.119 0-.065.16-.119.357-.119.196 0 .357-.053.357-.119 0-.065.095-.119.211-.119.117 0 .29-.107.384-.238.13-.18.308-.238.74-.238.313 0 .569-.053.569-.119 0-.073.555-.119 1.428-.119.873 0 1.428.046 1.428.12zm-4.135 3.391c-.179.203-.205 1.726-.03 1.726.076 0 .119.989.119 2.728 0 2.07.036 2.742.149 2.787.112.046.105.094-.03.198-.135.103-.142.152-.03.197.099.04.149.335.149.874 0 .534.05.837.149.883.119.055.119.083 0 .138-.082.038-.15.168-.15.288 0 .12.068.25.15.288.119.055.119.083 0 .138-.082.039-.15.168-.15.288 0 .12.068.25.15.288.119.055.119.083 0 .138-.176.082-.203 1.002-.03 1.002.065 0 .119.245.119.544 0 .612.29 1.06.487.755.092-.144.127-.142.236.01.096.134.143.142.188.03.034-.082.163-.149.289-.149.125 0 .228-.082.228-.181 0-.237 1.01-1.247 1.246-1.247.1 0 .182-.084.182-.186 0-.103.268-.447.595-.766.327-.319.595-.652.595-.74 0-.088.107-.237.238-.331.131-.094.238-.267.238-.383 0-.117.054-.212.12-.212.065 0 .118-.086.118-.19 0-.105.16-.34.357-.524.197-.183.357-.42.357-.524 0-.105.054-.19.12-.19.065 0 .118-.107.118-.238 0-.159.08-.238.238-.238.139 0 .238-.08.238-.19 0-.105.16-.34.357-.524.197-.184.357-.415.357-.514 0-.1.067-.203.149-.232.094-.032.006-.184-.238-.414-.213-.2-.387-.425-.387-.5 0-.173-.542-.72-.713-.72-.072 0-.554-.429-1.072-.952-.518-.524-1.012-.953-1.099-.953-.087 0-.235-.107-.329-.237-.094-.131-.267-.239-.383-.239-.117 0-.212-.053-.212-.119 0-.065-.085-.119-.188-.119s-.393-.214-.645-.476c-.302-.314-.562-.476-.764-.476-.228 0-.307-.061-.307-.238 0-.158-.08-.238-.238-.238-.131 0-.238-.053-.238-.119 0-.18-.634-.133-.803.06z" /></svg>